<svg xmlns="http://www.w3.org/2000/svg" width="422.099" height="318" viewBox="0 0 422.099 318">
  <g id="Path_148" data-name="Path 148" transform="translate(2 2)" fill="#DEDEDE" stroke-linecap="round" stroke-linejoin="round">
    <path d="M 419.1714782714844 315.2019958496094 L 417.9275207519531 314.9851684570313 C 417.674072265625 314.9409484863281 392.1430969238281 310.5157775878906 354.1804809570313 306.1476745605469 C 319.1501770019531 302.1170043945313 266.0699462890625 297.312255859375 212.1292724609375 297.312255859375 C 158.1806335449219 297.312255859375 103.4180603027344 302.1183166503906 66.97779846191406 306.1500549316406 C 27.49405860900879 310.5185852050781 0.4309526383876801 314.9425659179688 0.1622157841920853 314.9867248535156 L -1.093152642250061 315.193115234375 L -0.9971526265144348 313.9245300292969 C -0.9818368554115295 313.7226257324219 0.5484263300895691 293.3880615234375 2.058952569961548 263.7290649414063 C 3.45295262336731 236.3589477539063 5.114636898040771 195.2255859375 5.114636898040771 154.6984252929688 C 5.114636898040771 114.1695785522461 3.452794790267944 74.28594970703125 2.058742046356201 47.96452713012695 C 0.5482684373855591 19.44589424133301 -0.9815210700035095 0.2703684270381927 -0.9967842102050781 0.07999999821186066 L -1.096205234527588 -1.158947348594666 L 0.1353210508823395 -0.9907894730567932 C 0.4042157828807831 -0.9541052579879761 27.48079490661621 2.722894668579102 66.97137451171875 6.352473735809326 C 103.4126892089844 9.701789855957031 158.1772613525391 13.69431591033936 212.1292724609375 13.69431591033936 C 266.0840454101563 13.69431591033936 319.1772155761719 9.70136833190918 354.2159118652344 6.351684093475342 C 392.1794738769531 2.722421169281006 417.7025451660156 -0.9529473781585693 417.9559020996094 -0.9896842241287231 L 419.1737365722656 -1.166052579879761 L 419.0973205566406 0.06210526451468468 C 419.0854797363281 0.2525263130664825 417.8991088867188 19.43578910827637 416.7280578613281 47.95878982543945 C 415.6473083496094 74.28141784667969 414.3590087890625 114.1669998168945 414.3590087890625 154.6984252929688 C 414.3590087890625 195.2308349609375 415.6473693847656 236.3688354492188 416.7281494140625 263.7420043945313 C 417.8992614746094 293.4033813476563 419.085693359375 313.7394714355469 419.0975341796875 313.94140625 L 419.1714782714844 315.2019958496094 Z" stroke="none"/>
    <path d="M 0 0 C 0 0 6.1146240234375 76.19821166992188 6.1146240234375 154.6984252929688 C 6.1146240234375 233.1984252929688 0 314 0 314 C 0 314 107.6044921875 296.312255859375 212.1292724609375 296.312255859375 C 316.654052734375 296.312255859375 418.0992736816406 314 418.0992736816406 314 C 418.0992736816406 314 413.3590087890625 233.1984252929688 413.3590087890625 154.6984252929688 C 413.3590087890625 76.1983642578125 418.0992736816406 0 418.0992736816406 0 C 418.0992736816406 0 316.654052734375 14.69430541992188 212.1292724609375 14.69430541992188 C 107.6044921875 14.69430541992188 0 0 0 0 M 418.0993041992188 -2.000030517578125 C 418.5979919433594 -2.00006103515625 419.0827331542969 -1.813385009765625 419.4545288085938 -1.470794677734375 C 419.8973693847656 -1.062744140625 420.1327819824219 -0.476837158203125 420.0954284667969 0.1241455078125 C 420.0835876464844 0.3145751953125 418.8976440429688 19.49188232421875 417.7269592285156 48.00579833984375 C 416.6466979980469 74.31758117675781 415.3590087890625 114.1862030029297 415.3590087890625 154.6984252929688 C 415.3590087890625 195.2126312255859 416.6467895507813 236.33447265625 417.7271728515625 263.697265625 C 418.89794921875 293.3503112792969 420.0840148925781 313.6809997558594 420.0958557128906 313.8829040527344 C 420.1316223144531 314.4928283691406 419.8865966796875 315.0857238769531 419.4305725097656 315.4924621582031 C 419.061279296875 315.8219299316406 418.5863037109375 316 418.0992736816406 316 C 417.9850158691406 316 417.8701171875 315.9902038574219 417.7557373046875 315.9702758789063 C 417.5024719238281 315.9261169433594 391.9876403808594 311.5041198730469 354.0498962402344 307.1392517089844 C 319.0496215820313 303.1124267578125 266.0164794921875 298.312255859375 212.1292724609375 298.312255859375 C 158.2262268066406 298.312255859375 103.5029907226563 303.114990234375 67.08779907226563 307.1440124511719 C 27.62991333007813 311.5096435546875 0.5928955078125 315.9293823242188 0.324432373046875 315.9735412597656 C 0.216339111328125 315.9913024902344 0.107818603515625 316.0000305175781 -6.103515625e-05 316.0000305175781 C -0.496337890625 316.0000305175781 -0.979461669921875 315.8151550292969 -1.351104736328125 315.4746398925781 C -1.803466796875 315.0601501464844 -2.04058837890625 314.4609069824219 -1.99432373046875 313.8490905761719 C -1.97900390625 313.647216796875 -0.449371337890625 293.3197326660156 1.060577392578125 263.6714172363281 C 2.453857421875 236.3146362304688 4.1146240234375 195.2021026611328 4.1146240234375 154.6984252929688 C 4.1146240234375 114.1914215087891 2.453582763671875 74.3267822265625 1.06011962890625 48.01742553710938 C -0.449615478515625 19.51220703125 -1.978302001953125 0.3502197265625 -1.993560791015625 0.160003662109375 C -2.04205322265625 -0.443695068359375 -1.814300537109375 -1.036834716796875 -1.374298095703125 -1.4530029296875 C -1.000518798828125 -1.806549072265625 -0.507720947265625 -2.000030517578125 0 -2.000030517578125 C 0.089935302734375 -2.000030517578125 0.1802978515625 -1.99395751953125 0.270599365234375 -1.98162841796875 C 0.53936767578125 -1.94488525390625 27.60336303710938 1.73016357421875 67.07485961914063 5.35772705078125 C 103.4922790527344 8.704681396484375 158.219482421875 12.69430541992188 212.1292724609375 12.69430541992188 C 266.0446166992188 12.69430541992188 319.1036987304688 8.703826904296875 354.1207275390625 5.356201171875 C 392.0604248046875 1.729217529296875 417.5594177246094 -1.94268798828125 417.8125915527344 -1.9793701171875 C 417.9081726074219 -1.99322509765625 418.0040283203125 -2.000030517578125 418.0993041992188 -2.000030517578125 Z" stroke="none" fill="#DEDEDE"/>
  </g>
</svg>
