<svg xmlns="http://www.w3.org/2000/svg" width="268.223" height="200.724" viewBox="0 0 268.223 200.724">
  <g id="undraw_elements_cipa" transform="translate(0 1)">
    <path id="Path_106" data-name="Path 106" d="M181.167,280.876c-7.783,28.9-24.259,54.184-54.184,54.184A54.184,54.184,0,0,1,72.8,280.876c0-29.925,31.541-34.619,54.184-54.184C172.964,186.961,205.336,191.143,181.167,280.876Z" transform="translate(-72.799 -165.751)" fill="#f2f2f2"/>
    <circle id="Ellipse_18" data-name="Ellipse 18" cx="17.298" cy="17.298" r="17.298" transform="translate(106.943 9.158)" fill="rgba(217,80,64,0.61)"/>
    <rect id="Rectangle_21" data-name="Rectangle 21" width="9.158" height="9.158" transform="translate(146.373 2.289)" fill="rgba(217,80,64,0.61)"/>
    <ellipse id="Ellipse_19" data-name="Ellipse 19" cx="43.245" cy="5.883" rx="43.245" ry="5.883" transform="translate(11.599 163.536)" fill="#3f3d56"/>
    <rect id="Rectangle_22" data-name="Rectangle 22" width="58.508" height="29.763" transform="translate(67.005 32.561)" fill="#5185eb"/>
    <circle id="Ellipse_20" data-name="Ellipse 20" cx="20.096" cy="20.096" r="20.096" transform="translate(32.409 120.578)" fill="#2f2e41"/>
    <rect id="Rectangle_23" data-name="Rectangle 23" width="6.105" height="10.939" transform="translate(43.347 156.446)" fill="#2f2e41"/>
    <rect id="Rectangle_24" data-name="Rectangle 24" width="6.105" height="10.939" transform="translate(55.558 156.446)" fill="#2f2e41"/>
    <ellipse id="Ellipse_21" data-name="Ellipse 21" cx="5.088" cy="1.908" rx="5.088" ry="1.908" transform="translate(43.347 165.604)" fill="#2f2e41"/>
    <ellipse id="Ellipse_22" data-name="Ellipse 22" cx="5.088" cy="1.908" rx="5.088" ry="1.908" transform="translate(55.558 165.349)" fill="#2f2e41"/>
    <circle id="Ellipse_23" data-name="Ellipse 23" cx="6.868" cy="6.868" r="6.868" transform="translate(46.146 128.718)" fill="#fff"/>
    <circle id="Ellipse_24" data-name="Ellipse 24" cx="2.289" cy="2.289" r="2.289" transform="translate(50.725 133.297)" fill="#3f3d56"/>
    <path id="Path_107" data-name="Path 107" d="M201.7,487.732c-1.623-7.267,3.564-14.61,11.586-16.4s15.839,2.648,17.462,9.915-3.693,9.947-11.715,11.738S203.32,495,201.7,487.732Z" transform="translate(-168.686 -365.747)" fill="#5185eb"/>
    <circle id="Ellipse_25" data-name="Ellipse 25" cx="20.096" cy="20.096" r="20.096" transform="translate(25.541 62.833)" fill="#2f2e41"/>
    <rect id="Rectangle_25" data-name="Rectangle 25" width="6.105" height="10.939" transform="translate(36.479 98.701)" fill="#2f2e41"/>
    <rect id="Rectangle_26" data-name="Rectangle 26" width="6.105" height="10.939" transform="translate(48.69 98.701)" fill="#2f2e41"/>
    <ellipse id="Ellipse_26" data-name="Ellipse 26" cx="5.088" cy="1.908" rx="5.088" ry="1.908" transform="translate(36.479 107.859)" fill="#2f2e41"/>
    <ellipse id="Ellipse_27" data-name="Ellipse 27" cx="5.088" cy="1.908" rx="5.088" ry="1.908" transform="translate(48.69 107.604)" fill="#2f2e41"/>
    <circle id="Ellipse_28" data-name="Ellipse 28" cx="6.868" cy="6.868" r="6.868" transform="translate(39.277 70.973)" fill="#fff"/>
    <circle id="Ellipse_29" data-name="Ellipse 29" cx="2.289" cy="2.289" r="2.289" transform="translate(43.856 75.552)" fill="#3f3d56"/>
    <path id="Path_108" data-name="Path 108" d="M174.7,260.732c-1.623-7.267,3.564-14.61,11.586-16.4s15.839,2.648,17.462,9.915-3.693,9.947-11.715,11.738S176.32,268,174.7,260.732Z" transform="translate(-148.554 -196.492)" fill="#5185eb"/>
    <ellipse id="Ellipse_30" data-name="Ellipse 30" cx="10.048" cy="3.154" rx="10.048" ry="3.154" transform="matrix(0.357, -0.934, 0.934, 0.357, 57.678, 76.013)" fill="#2f2e41"/>
    <ellipse id="Ellipse_31" data-name="Ellipse 31" cx="3.154" cy="10.048" rx="3.154" ry="10.048" transform="translate(12.571 72.148) rotate(-64.626)" fill="#2f2e41"/>
    <path id="Path_109" data-name="Path 109" d="M213.4,404.788c0,1.967,5.064,5.851,10.684,5.851s10.889-5.537,10.889-7.5-5.269.382-10.889.382S213.4,402.821,213.4,404.788Z" transform="translate(-177.631 -314.609)" fill="#fff"/>
    <rect id="Rectangle_27" data-name="Rectangle 27" width="58.508" height="29.763" transform="translate(72.602 28.237)" fill="none" stroke="#3f3d56" stroke-miterlimit="10" stroke-width="2"/>
    <rect id="Rectangle_28" data-name="Rectangle 28" width="9.158" height="9.158" transform="translate(149.426)" fill="none" stroke="#3f3d56" stroke-miterlimit="10" stroke-width="2"/>
    <path id="Path_110" data-name="Path 110" d="M965.175,458.105c0,20.816-12.375,28.084-27.639,28.084S909.9,478.921,909.9,458.105s27.639-47.3,27.639-47.3S965.175,437.29,965.175,458.105Z" transform="translate(-696.952 -320.917)" fill="#f2f2f2"/>
    <path id="Path_111" data-name="Path 111" d="M909.232,426.568l.283-17.421L921.3,387.6l-11.736,18.819.127-7.833,8.119-15.593-8.085,13.52h0l.229-14.088,8.694-12.414-8.658,10.2.143-25.833-.9,34.2.074-1.411-8.839-13.53,8.7,16.238-.824,15.734-.024-.418-10.19-14.238,10.159,15.714-.1,1.968-.018.03.008.162-2.089,39.919h2.792l.335-20.619,10.135-15.675Z" transform="translate(-669.655 -264.48)" fill="#3f3d56"/>
    <ellipse id="Ellipse_32" data-name="Ellipse 32" cx="9.61" cy="2.847" rx="9.61" ry="2.847" transform="translate(228.002 181.408)" fill="#3f3d56"/>
    <ellipse id="Ellipse_33" data-name="Ellipse 33" cx="43.245" cy="5.883" rx="43.245" ry="5.883" transform="translate(151.256 187.957)" fill="#3f3d56"/>
    <circle id="Ellipse_34" data-name="Ellipse 34" cx="20.096" cy="20.096" r="20.096" transform="translate(174.914 143.6)" fill="#2f2e41"/>
    <rect id="Rectangle_29" data-name="Rectangle 29" width="6.105" height="10.939" transform="translate(204.168 190.406) rotate(180)" fill="#2f2e41"/>
    <rect id="Rectangle_30" data-name="Rectangle 30" width="6.105" height="10.939" transform="translate(191.957 190.406) rotate(180)" fill="#2f2e41"/>
    <ellipse id="Ellipse_35" data-name="Ellipse 35" cx="5.088" cy="1.908" rx="5.088" ry="1.908" transform="translate(182.274 192.443) rotate(-30)" fill="#2f2e41"/>
    <ellipse id="Ellipse_36" data-name="Ellipse 36" cx="5.088" cy="1.908" rx="5.088" ry="1.908" transform="translate(194.23 192.443) rotate(-30)" fill="#2f2e41"/>
    <circle id="Ellipse_37" data-name="Ellipse 37" cx="6.868" cy="6.868" r="6.868" transform="translate(187.633 151.74)" fill="#fff"/>
    <circle id="Ellipse_38" data-name="Ellipse 38" cx="2.289" cy="2.289" r="2.289" transform="translate(189.873 153.393)" fill="#3f3d56"/>
    <path id="Path_112" data-name="Path 112" d="M830.033,578.232c1.623-7.267-3.564-14.61-11.586-16.4s-15.839,2.648-17.462,9.915,3.693,9.947,11.715,11.738S828.411,585.5,830.033,578.232Z" transform="translate(-615.529 -433.225)" fill="#5185eb"/>
    <ellipse id="Ellipse_39" data-name="Ellipse 39" cx="3.154" cy="10.048" rx="3.154" ry="10.048" transform="translate(166.924 155.735) rotate(-66.829)" fill="#2f2e41"/>
    <ellipse id="Ellipse_40" data-name="Ellipse 40" cx="3.154" cy="10.048" rx="3.154" ry="10.048" transform="translate(204.572 169.217) rotate(-66.829)" fill="#2f2e41"/>
    <rect id="Rectangle_31" data-name="Rectangle 31" width="9.158" height="9.158" transform="translate(161.127 144.744)" fill="rgba(217,80,64,0.61)"/>
    <rect id="Rectangle_32" data-name="Rectangle 32" width="9.158" height="9.158" transform="translate(151.461 128.464)" fill="none" stroke="#3f3d56" stroke-miterlimit="10" stroke-width="2"/>
    <path id="Path_113" data-name="Path 113" d="M828.359,726.489a4.579,4.579,0,0,1-9.158,0c0-2.529,2.05-3.053,4.579-3.053S828.359,723.96,828.359,726.489Z" transform="translate(-629.328 -554.016)" fill="#fff"/>
  </g>
</svg>
