<svg id="undraw_career_progress_ivdb" xmlns="http://www.w3.org/2000/svg" width="274" height="191" viewBox="0 0 274 191">
  <rect id="Rectangle_33" data-name="Rectangle 33" width="32.884" height="9.941" rx="4.971" transform="translate(38.989 76.6)" fill="#5185eb" opacity="0.1"/>
  <rect id="Rectangle_34" data-name="Rectangle 34" width="32.884" height="9.941" rx="4.971" transform="translate(73.403 86.544)" fill="#5185eb" opacity="0.1"/>
  <rect id="Rectangle_35" data-name="Rectangle 35" width="32.884" height="9.941" rx="4.971" transform="translate(107.82 96.485)" fill="#5185eb" opacity="0.1"/>
  <rect id="Rectangle_36" data-name="Rectangle 36" width="32.884" height="9.941" rx="4.971" transform="translate(38.989 61.689)" fill="#5185eb" opacity="0.1"/>
  <rect id="Rectangle_37" data-name="Rectangle 37" width="32.884" height="9.941" rx="4.971" transform="translate(73.403 71.63)" fill="#5185eb" opacity="0.1"/>
  <rect id="Rectangle_38" data-name="Rectangle 38" width="32.884" height="9.941" rx="4.971" transform="translate(107.82 81.573)" fill="#5185eb" opacity="0.1"/>
  <rect id="Rectangle_39" data-name="Rectangle 39" width="32.884" height="9.941" rx="4.971" transform="translate(146.057 76.6)" fill="#5185eb" opacity="0.1"/>
  <rect id="Rectangle_40" data-name="Rectangle 40" width="32.884" height="9.941" rx="4.971" transform="translate(180.471 86.544)" fill="#5185eb" opacity="0.1"/>
  <rect id="Rectangle_41" data-name="Rectangle 41" width="32.884" height="9.941" rx="4.971" transform="translate(214.887 96.485)" fill="#5185eb" opacity="0.1"/>
  <rect id="Rectangle_42" data-name="Rectangle 42" width="32.884" height="9.941" rx="4.971" transform="translate(146.057 61.689)" fill="#5185eb" opacity="0.1"/>
  <rect id="Rectangle_43" data-name="Rectangle 43" width="32.884" height="9.941" rx="4.971" transform="translate(180.471 71.63)" fill="#5185eb" opacity="0.1"/>
  <rect id="Rectangle_44" data-name="Rectangle 44" width="32.884" height="9.941" rx="4.971" transform="translate(214.887 81.573)" fill="#5185eb" opacity="0.1"/>
  <rect id="Rectangle_45" data-name="Rectangle 45" width="32.884" height="9.941" rx="4.971" transform="translate(38.989 41.804)" fill="#5185eb" opacity="0.1"/>
  <rect id="Rectangle_46" data-name="Rectangle 46" width="32.884" height="9.941" rx="4.971" transform="translate(73.403 51.745)" fill="#5185eb" opacity="0.1"/>
  <rect id="Rectangle_47" data-name="Rectangle 47" width="32.884" height="9.941" rx="4.971" transform="translate(107.82 61.689)" fill="#5185eb" opacity="0.1"/>
  <rect id="Rectangle_48" data-name="Rectangle 48" width="32.884" height="9.941" rx="4.971" transform="translate(38.989 26.89)" fill="#5185eb" opacity="0.1"/>
  <rect id="Rectangle_49" data-name="Rectangle 49" width="32.884" height="9.941" rx="4.971" transform="translate(73.403 36.834)" fill="#5185eb" opacity="0.1"/>
  <rect id="Rectangle_50" data-name="Rectangle 50" width="32.884" height="9.941" rx="4.971" transform="translate(107.82 46.775)" fill="#5185eb" opacity="0.1"/>
  <rect id="Rectangle_51" data-name="Rectangle 51" width="32.884" height="9.941" rx="4.971" transform="translate(146.057 41.804)" fill="#5185eb" opacity="0.1"/>
  <rect id="Rectangle_52" data-name="Rectangle 52" width="32.884" height="9.941" rx="4.971" transform="translate(180.471 51.745)" fill="#5185eb" opacity="0.1"/>
  <rect id="Rectangle_53" data-name="Rectangle 53" width="32.884" height="9.941" rx="4.971" transform="translate(214.887 61.689)" fill="#5185eb" opacity="0.1"/>
  <rect id="Rectangle_54" data-name="Rectangle 54" width="32.884" height="9.941" rx="4.971" transform="translate(146.057 26.89)" fill="#5185eb" opacity="0.1"/>
  <rect id="Rectangle_55" data-name="Rectangle 55" width="32.884" height="9.941" rx="4.971" transform="translate(180.471 36.834)" fill="#5185eb" opacity="0.1"/>
  <rect id="Rectangle_56" data-name="Rectangle 56" width="32.884" height="9.941" rx="4.971" transform="translate(214.887 46.775)" fill="#5185eb" opacity="0.1"/>
  <ellipse id="Ellipse_41" data-name="Ellipse 41" cx="137" cy="25" rx="137" ry="25" transform="translate(0 141)" fill="#5185eb" opacity="0.1"/>
  <path id="Path_114" data-name="Path 114" d="M205.571,320.626,194,391.561l52.321-5.534-2.264-6.037-40.876,3.4L212.74,320.5Z" transform="translate(-145.2 -239.88)" fill="#3f3d56"/>
  <path id="Path_115" data-name="Path 115" d="M186,.252,256.433,0l20.375,154.2-70.684,9.559Z" transform="translate(-139.213)" fill="#3f3d56"/>
  <path id="Path_116" data-name="Path 116" d="M216.5,24.5h56.849l19.872,143.38-58.61,8.049Z" transform="translate(-162.041 -18.337)" fill="#fff"/>
  <path id="Path_117" data-name="Path 117" d="M456.645,633.936a14.007,14.007,0,0,0,1.089,2.04c1.358,1.816,3.937,2.1,5.871,3.285a.54.54,0,0,1,.229.221c.088.209-.108.428-.3.558-1.466,1.029-3.391,1.052-5.184,1.039a6.915,6.915,0,0,1-1.794-.171c-.948-.252-1.761-.913-2.7-1.182a7.145,7.145,0,0,0-1.482-.209l-1.965-.133a4.631,4.631,0,0,1-1.532-.284,1.55,1.55,0,0,1-.966-1.145,3.288,3.288,0,0,1,.229-1.23c.252-.966.174-2.133.926-2.792a2.855,2.855,0,0,1,1.044-.5,33.271,33.271,0,0,1,4.178-1.112C455.46,632.09,456.129,632.945,456.645,633.936Z" transform="translate(-348.571 -490.842)" fill="#3f3d56"/>
  <path id="Path_118" data-name="Path 118" d="M372.335,640.269a1.838,1.838,0,0,1-.322,1.524,1.718,1.718,0,0,1-.843.377,7.369,7.369,0,0,1-5.549-.548,1.534,1.534,0,0,1-.438-.375,1.367,1.367,0,0,1-.221-.692,5.934,5.934,0,0,1,.36-2.1,36.872,36.872,0,0,0,1.069-4.968c.02-.138,4.747.755,5.061,1.222a8.049,8.049,0,0,1,.5,2.656Q372.194,638.81,372.335,640.269Z" transform="translate(-286.482 -491.734)" fill="#3f3d56"/>
  <path id="Path_119" data-name="Path 119" d="M382.157,376.036l1.258,11.694a40.706,40.706,0,0,1,.342,7.189c-.2,2.767-.976,5.534-.649,8.276.128,1.067.42,2.113.463,3.187a17.359,17.359,0,0,1-.108,2.138c-.569,7.1,1.23,14.137,2.236,21.183a9.194,9.194,0,0,1,.106,2.636c-.131.893-.392,2.065.4,2.488l-7.466,2.707c-.953-1.195-.322-3.054-.5-4.571a23.783,23.783,0,0,0-1.316-3.9,18.418,18.418,0,0,1-.556-3.655c-.651-6.684-2.651-13.193-3.119-19.892A9.058,9.058,0,0,0,373,403.6a17.85,17.85,0,0,0-1.122-2.342,16.517,16.517,0,0,1-1.112-3.735l-1.6-7.483c-1.615,2.4-1.549,5.534-1.869,8.417-.448,4.025-1.449,7.982-2.264,11.956a23.755,23.755,0,0,0-.425,2.591c-.211,2.332.209,4.686-.015,7.016-.251,2.7-1.386,5.333-1.112,8.032a28.087,28.087,0,0,0,1.112,4.357,6.835,6.835,0,0,1-.013,4.42,13.583,13.583,0,0,0-6.467-.714c-2.4-2.453-2.822-5.874-2.986-9.307s.231-6.872-.2-10.273c-.126-1.006-.322-1.987-.355-2.991-.106-3.217,1.441-6.228,2.211-9.355a19.8,19.8,0,0,0,.194-8.59c-.377-1.879-1.026-3.7-1.258-5.607a25.458,25.458,0,0,1,.755-7.994c.36-1.778.717-3.557,1.124-5.325a14.028,14.028,0,0,1,2.128-5.393,9.484,9.484,0,0,1,8.3-3.351,17.916,17.916,0,0,1,8.573,3.416A32.32,32.32,0,0,1,382.157,376.036Z" transform="translate(-278.711 -292.958)" fill="#192534"/>
  <path id="Path_120" data-name="Path 120" d="M402.96,208.815a2.171,2.171,0,0,0-.289.74,2.491,2.491,0,0,0,.5,1.439,7.837,7.837,0,0,1,.737,1.836,3.019,3.019,0,0,1,.108,1.225,2.955,2.955,0,0,1-.327.88,4.479,4.479,0,0,1-2.183,2.191,3.846,3.846,0,0,1-2.362.1,7.172,7.172,0,0,1-2.161-1.026,6.57,6.57,0,0,1-1.479-1.283,8.864,8.864,0,0,1-1.021-1.761,7.009,7.009,0,0,1-.958-3.464,1.157,1.157,0,0,1,.06-.319,1.718,1.718,0,0,1,.337-.5,6.565,6.565,0,0,0,1.539-4.566l3.665.833c.807.184,1.615.367,2.412.6a4.049,4.049,0,0,1,2.085,1.034C404.051,207.346,403.249,208.282,402.96,208.815Z" transform="translate(-307.861 -170.518)" fill="#fbbebe"/>
  <circle id="Ellipse_42" data-name="Ellipse 42" cx="6.661" cy="6.661" r="6.661" transform="translate(86.476 24.352)" fill="#fbbebe"/>
  <path id="Path_121" data-name="Path 121" d="M389.847,233.585a3.852,3.852,0,0,1,1.446-1.394,2.577,2.577,0,0,0,1.228-1.555,1.115,1.115,0,0,1,.111-.438c.214-.322.722-.161,1.026.075a7.883,7.883,0,0,1,1.733,2.191,13.939,13.939,0,0,1,2.493,8.955,19.146,19.146,0,0,1-.3,5.406,15.7,15.7,0,0,0-.782,3.336c-.083,4.158-1.527,8.132-1.628,12.29a31.885,31.885,0,0,0,.181,3.6l.236,2.7q-5.486-.314-10.942-.963a20.93,20.93,0,0,0-.785-3.65,79.221,79.221,0,0,1-2.543-15.027c-.194-2.7-.392-5.383-.692-8.07-.269-2.442-.8-4.9-.48-7.338a10.131,10.131,0,0,1,1.031-3.174,2.093,2.093,0,0,1,.8-.963,2.174,2.174,0,0,1,.568-.184,10.546,10.546,0,0,1,1.731-.2,1.193,1.193,0,0,1,.423.04,1.326,1.326,0,0,1,.576.558A10.444,10.444,0,0,0,389.847,233.585Z" transform="translate(-297.782 -189.134)" fill="#f2f2f2"/>
  <path id="Path_122" data-name="Path 122" d="M406.72,243.038c.468.669,1.459.828,1.892,1.509a3.957,3.957,0,0,1,.33.9c.264.843.8,1.575,1.122,2.4a10.279,10.279,0,0,1,.485,3.761,12.447,12.447,0,0,1-.231,3.018c-.151.621-.4,1.212-.579,1.826a8.93,8.93,0,0,0-.337,3.22,1.318,1.318,0,0,0,.181.666,1.447,1.447,0,0,0,.644.438,4.767,4.767,0,0,0,2.314.581.848.848,0,0,0,.46-.153,1.025,1.025,0,0,0,.226-.3l.5-.85a3.782,3.782,0,0,0,.755-2.536,5.029,5.029,0,0,0-.571-1.3,15.288,15.288,0,0,1-.82-2.03,28.189,28.189,0,0,1-1.8-7.081,6.223,6.223,0,0,1,.3-2.747,7.821,7.821,0,0,1,.885-1.532.657.657,0,0,0-.707-.239,4.2,4.2,0,0,0-.732.3,3.473,3.473,0,0,1-2.307-.015,4.029,4.029,0,0,0-1.056-.357C407.58,242.53,406.738,243.068,406.72,243.038Z" transform="translate(-317.744 -199.121)" fill="#5185eb"/>
  <path id="Path_123" data-name="Path 123" d="M422.657,232.991c-.151-.121-.385-.231-.518-.091a.584.584,0,0,0-.1.2,1.354,1.354,0,0,1-.865.662c-.35.136-.727.211-.938-.048a.568.568,0,0,1,.033-.672,2.052,2.052,0,0,1,.551-.465,5.378,5.378,0,0,0,2.193-3.451,1.64,1.64,0,0,1,.6,1.039c.083.4.093.813.176,1.212a17,17,0,0,1,.46,1.69,8.832,8.832,0,0,1,0,.931,5.715,5.715,0,0,0,.106.9A17.121,17.121,0,0,0,422.657,232.991Z" transform="translate(-327.792 -189.102)" fill="#f2f2f2"/>
  <path id="Path_124" data-name="Path 124" d="M398.371,224.091c-.252-.239-.5-.465-.755-.709a9.786,9.786,0,0,1-2.432-3.861,1.452,1.452,0,0,0-.684,1.006,1.542,1.542,0,0,0,.332.818,12.75,12.75,0,0,1,1.844,4.933,1.469,1.469,0,0,1,1.27-.677c.4,0,2.181,1.056,2.309.79C400.444,225.972,398.673,224.375,398.371,224.091Z" transform="translate(-308.598 -181.909)" fill="#f2f2f2"/>
  <path id="Path_125" data-name="Path 125" d="M359.49,223.645a20.878,20.878,0,0,0,8.447,5.114,1.9,1.9,0,0,1,.853.433,1.743,1.743,0,0,1,.355.78,44.262,44.262,0,0,1,1.024,7.35,4.1,4.1,0,0,1-.025,1.228,3.872,3.872,0,0,1-1.077,1.688c-1.444,1.547-3.091,3.164-3.335,5.267a8.415,8.415,0,0,1-.143,1.207c-.126.468-.4.88-.576,1.336-.84,2.241,1.059,4.955-.1,7.043a12.713,12.713,0,0,1,1.273,3.839,5,5,0,0,0,.345,1.479,7.666,7.666,0,0,0,1.612,1.761c1.7,1.746,1.912,4.417,2.012,6.855.063,1.373.043,2.951-1.006,3.851a4.4,4.4,0,0,1-2.226.828,4.808,4.808,0,0,1-3.134-.219,5.036,5.036,0,0,1-1.56-1.653c-.825-1.2-1.653-2.4-2.435-3.627-1.238-1.939-2.4-4.156-2.048-6.43a14.936,14.936,0,0,1-1.733,6.7,9.218,9.218,0,0,1-5.212,4.389,6.686,6.686,0,0,1-6.5-1.434,8.789,8.789,0,0,1-1.386-1.869,18.243,18.243,0,0,1-2.048-5.21,2.025,2.025,0,0,1,.05-1.431c.113-.2.287-.36.4-.558.4-.677.015-1.529-.37-2.219-.586.055-1.006-.634-.953-1.223a5.16,5.16,0,0,1,.654-1.635,8.268,8.268,0,0,0,.216-5.121,23.025,23.025,0,0,1-.838-5.134c.043-1.839-1.28-3.494-2.289-5.031-.563-.865-1.22-1.67-1.711-2.578a8.318,8.318,0,0,1-.659-6.228,16.324,16.324,0,0,1,1.378-3.074l.83-1.557a2.568,2.568,0,0,1,1.761-1.509l5.743-2.264a8.641,8.641,0,0,0,2.073-1.036c.7-.528,1.225-1.258,1.894-1.821a1.062,1.062,0,0,1,.755-.329c.538.048.729.727.785,1.258.126,1.187,1.006,2.193,1.306,3.348,1.62,6.377,5.048,12.258,5.989,18.768a68.23,68.23,0,0,1,3.466-7.471,6.2,6.2,0,0,0,.536-1.084,4.628,4.628,0,0,0,.179-1.683,22.007,22.007,0,0,0-.933-4.82C360.575,227.763,360.072,225.778,359.49,223.645Z" transform="translate(-264.1 -183.466)" fill="#3f3d56"/>
  <path id="Path_126" data-name="Path 126" d="M456.041,289.825c.111,1.072.219,2.146.418,3.2.231,1.225.584,2.422.933,3.62a9.425,9.425,0,0,0,.729,1.944,2.5,2.5,0,0,1,.269.576,3.317,3.317,0,0,1-.279,1.509c-.362,1.509.724,3.187.04,4.578a8.74,8.74,0,0,0-.7,1.225,3.672,3.672,0,0,0,.083,1.615,9.783,9.783,0,0,1-.81,4.5l-.865,2.45a22.723,22.723,0,0,0-2.679-4.213c-.39-.453-.815-.873-1.175-1.351a9.474,9.474,0,0,1-1.258-2.45,21.24,21.24,0,0,1-1.3-6.47,4.426,4.426,0,0,1,.214-1.861,9.876,9.876,0,0,1,.558-1.006,8.135,8.135,0,0,0,.8-4.042,33.314,33.314,0,0,1,0-4.163,9.525,9.525,0,0,1,1.006-3.3,4.686,4.686,0,0,1,1.366-1.7,2.461,2.461,0,0,1,1.509-.491c.823.048.634.755.7,1.436Z" transform="translate(-349.706 -230.161)" fill="#3f3d56"/>
  <path id="Path_127" data-name="Path 127" d="M320.489,274q-.77,2.264-1.389,4.568-.6,2.264-1.079,4.553a9.751,9.751,0,0,0-.272,2.048,9.163,9.163,0,0,0,.41,2.367,58.678,58.678,0,0,0,7.9,16.287,14.66,14.66,0,0,1,3.346-3.054.717.717,0,0,0,.251-.251.682.682,0,0,0-.081-.589c-.918-1.882-2.372-3.539-2.83-5.584-.191-.85-.2-1.736-.415-2.581a27.726,27.726,0,0,1-1.046-3.217c-.153-1.223.252-2.556-.322-3.64a4.808,4.808,0,0,0,2.342-2.815,15.418,15.418,0,0,0,1.127-3.7,11.134,11.134,0,0,0-1.361-7.081,11.32,11.32,0,0,0-2.276-2.858c-.3-.269-1.006-1.041-1.441-1.034-.581.013-.767.953-.933,1.376C321.747,270.521,321.083,272.25,320.489,274Z" transform="translate(-251.154 -217.76)" fill="#3f3d56"/>
  <path id="Path_128" data-name="Path 128" d="M354.208,398.426c.076.055.161.131.141.221s-.093.113-.159.151a1.952,1.952,0,0,0-.724.981,27.388,27.388,0,0,0-1.092,2.89,12.672,12.672,0,0,0-1.972-2.3,5.581,5.581,0,0,1-1.522-1.743c0-.02,1.318-.994,1.439-1.1.37-.33.835-1.243,1.217-1.444.433-.226.845.662,1.175,1.019A9.993,9.993,0,0,0,354.208,398.426Z" transform="translate(-274.453 -314.03)" fill="#fbbebe"/>
  <path id="Path_129" data-name="Path 129" d="M404.1,158.91a1.235,1.235,0,0,0-.312-.908,1.19,1.19,0,0,0-.755-.209c-1.466-.048-2.983.2-4.367-.294-.911-.325-1.688-.948-2.576-1.336a2.6,2.6,0,0,0-2.742.161,3.927,3.927,0,0,0-.88,1.987,11.651,11.651,0,0,1-2.171,4.306,2.672,2.672,0,0,1-1.484-1.459c-1.069-2.178-.543-4.779.216-7.089.252-.775.531-1.542.81-2.307l.614-1.69a3.3,3.3,0,0,0,2.1-1.046l.264.641A3.346,3.346,0,0,0,394.7,149a1.023,1.023,0,0,0,1.195.375c.44-.128.82-.375,1.258-.5,1.17-.377,2.417.2,3.645.269a14.582,14.582,0,0,1,1.557.045,4.084,4.084,0,0,1,2.915,3c.294.931.538,2.075,1.456,2.4.02.352-.6.42-.657.755a.578.578,0,0,0,.076.319l.843,1.809a2.093,2.093,0,0,1-1.217-.06C405.4,158.3,404.135,159.592,404.1,158.91Z" transform="translate(-303.887 -128.939)" fill="#192534"/>
  <path id="Path_130" data-name="Path 130" d="M615.826,181.3a33.051,33.051,0,0,1,1.006,4.208,4.273,4.273,0,0,1-.324,3.142c2.329-3.5,4.762-7.114,8.3-9.375a7.579,7.579,0,0,1-1.975-5.846c.02-.211-2.905.893-3.129,1.019-1.026.571-1.967,1.28-2.968,1.892-.518.314-2.676,1.059-2.7,1.509,0,.289.858,1.175,1.019,1.479A11.488,11.488,0,0,1,615.826,181.3Z" transform="translate(-472.913 -147.393)" fill="#fbbebe"/>
  <path id="Path_131" data-name="Path 131" d="M620.674,724.459a3.9,3.9,0,0,0-3.984-.3c-1.139.589-1.907,1.7-2.943,2.458-1.781,1.293-4.133,1.4-6.218,2.1a2.119,2.119,0,0,0-1.376,1.006,1.786,1.786,0,0,0,.1,1.4,3.627,3.627,0,0,0,1.726,1.778,7.21,7.21,0,0,0,3.049.48l9.005.106a73.767,73.767,0,0,1,8.3.41,3.109,3.109,0,0,0,1.9-.146c.921-.5,1.026-1.776.956-2.825a25.927,25.927,0,0,0-1.761-7.748c-.108-.274-.252-.586-.556-.636a.906.906,0,0,0-.6.191c-2.541,1.509-5.758,2.362-8.459,1.155" transform="translate(-466.937 -558.394)" fill="#fff"/>
  <path id="Path_132" data-name="Path 132" d="M666.212,500.041c-1.006,5.843-.35,11.848.782,17.666a30.771,30.771,0,0,0,.823,3.431c.405,1.283.951,2.516,1.331,3.806.966,3.27.83,6.767.687,10.18l-.659,15.533a11.267,11.267,0,0,0,.287,3.879c.158.5.352,1.132-.048,1.472a1.123,1.123,0,0,1-.531.2,8.216,8.216,0,0,1-5.282-.792l-.179-15.691a101.434,101.434,0,0,0-.858-14.471c-.591-3.8-1.617-7.546-1.685-11.39-.07-4.025.916-8,1.922-11.9a4.572,4.572,0,0,1,1.655-2.012,2.034,2.034,0,0,1,.8-.488C665.563,499.384,666.026,499.786,666.212,500.041Z" transform="translate(-507.968 -391.429)" fill="#3f3d56"/>
  <path id="Path_133" data-name="Path 133" d="M666.212,500.041c-1.006,5.843-.35,11.848.782,17.666a30.771,30.771,0,0,0,.823,3.431c.405,1.283.951,2.516,1.331,3.806.966,3.27.83,6.767.687,10.18l-.659,15.533a11.267,11.267,0,0,0,.287,3.879c.158.5.352,1.132-.048,1.472a1.123,1.123,0,0,1-.531.2,8.216,8.216,0,0,1-5.282-.792l-.179-15.691a101.434,101.434,0,0,0-.858-14.471c-.591-3.8-1.617-7.546-1.685-11.39-.07-4.025.916-8,1.922-11.9a4.572,4.572,0,0,1,1.655-2.012,2.034,2.034,0,0,1,.8-.488C665.563,499.384,666.026,499.786,666.212,500.041Z" transform="translate(-507.968 -391.429)" opacity="0.1"/>
  <path id="Path_134" data-name="Path 134" d="M606.7,421.873c-.372,1.532.418,3.119.33,4.694a12.273,12.273,0,0,0-.252,2.84,12.884,12.884,0,0,0,1.2,2.5,6.777,6.777,0,0,1,.408,2.234c.1,1.882.02,3.773-.05,5.647a55.578,55.578,0,0,0,.209,9.423,29.48,29.48,0,0,0,2.181,7.836,13.589,13.589,0,0,1,.813,2.11,15.08,15.08,0,0,1,.277,2.048,20.8,20.8,0,0,0,1.778,6.467c.641,1.4,1.761,2.515,2.115,4,.337,1.424.111,2.925.355,4.367.179,1.069.614,2.08.855,3.137a37.273,37.273,0,0,1,.465,4.176c.453,4.025,2.281,8.049,1.19,11.953a5.336,5.336,0,0,0-.4,2.382,2.97,2.97,0,0,1,.181,1.17,5.532,5.532,0,0,1-.458.9,1.66,1.66,0,0,0,.463,1.743,4.953,4.953,0,0,0,1.635.966,14.72,14.72,0,0,0,5.785,1.58,1.554,1.554,0,0,0,.712-.131,1.762,1.762,0,0,0,.694-.976l1.031-2.551a1.094,1.094,0,0,0,.078-.958,1.785,1.785,0,0,0-.433-.4c-.833-.7-.644-2.012-.422-3.066a44.745,44.745,0,0,0,.936-8.226,89.565,89.565,0,0,0-1.7-16.436,34.249,34.249,0,0,0-1.258-5.6c-.626-1.811-1.549-3.554-1.4-5.436.161-2.032-.367-4.163,0-6.168s.948-3.967,1.323-5.969a61.728,61.728,0,0,0,.755-7.883,7.625,7.625,0,0,1,.646-3.144c.294-.558.722-1.036,1.051-1.577.85-1.406.986-3.149,1.8-4.578a16,16,0,0,0,1.2-2,5.582,5.582,0,0,0,.307-1.776,21.126,21.126,0,0,0-.252-4.54A29.543,29.543,0,0,0,617,419.42a16.415,16.415,0,0,0-5.423.853C609.936,420.884,608.437,421.742,606.7,421.873Z" transform="translate(-467.346 -331.523)" fill="#3f3d56"/>
  <path id="Path_135" data-name="Path 135" d="M609.843,743.464c-.74.921-.689,2.236-1.162,3.32a7.3,7.3,0,0,1-3.064,2.925l-7.546,4.779a2.1,2.1,0,0,0-1.006,1.029,1.651,1.651,0,0,0,.038.9,3.919,3.919,0,0,0,2.636,2.676,7.794,7.794,0,0,0,2.04.209l3.393.045a19.858,19.858,0,0,0,3.1-.121c.941-.136,1.857-.405,2.792-.576,1.7-.309,3.454-.282,5.159-.581a27.3,27.3,0,0,0,3.089-.8,12.324,12.324,0,0,0,3.544-1.487,1.839,1.839,0,0,0,.682-.734,2.169,2.169,0,0,0-.02-1.331l-1.62-7.119a4.242,4.242,0,0,0-.634-1.663,1.452,1.452,0,0,0-1.567-.591,3.325,3.325,0,0,0-.651.392,4,4,0,0,1-2.875.465,4.531,4.531,0,0,1-1.982-.707c-.387-.32-.5-.815-.833-1.177a2.362,2.362,0,0,0-3.509.138Z" transform="translate(-460.174 -573.419)" fill="#fff"/>
  <circle id="Ellipse_43" data-name="Ellipse 43" cx="9.088" cy="9.088" r="9.088" transform="translate(135.688 14.751)" fill="#fbbebe"/>
  <path id="Path_136" data-name="Path 136" d="M599.837,122.873c.87-.488.87-1.894,1.761-2.362s1.9.345,2.473,1.165a10.713,10.713,0,0,1,1.7,3.992,2.008,2.008,0,0,0,.463,1.137,1.781,1.781,0,0,0,1.1.36q1.723.171,3.451.312a7.46,7.46,0,0,0,3.8-.365,2.766,2.766,0,0,0,1.142-.946,4.255,4.255,0,0,0,.488-1.278,30.135,30.135,0,0,0,1.258-6.965,5.623,5.623,0,0,0-.536-2.842,5.769,5.769,0,0,1-.79-1.494c-.113-.553.252-1.258.825-1.2a3.386,3.386,0,0,1-1.509-.287,1.159,1.159,0,0,1-.631-1.285c-1.278.163-2.209-1.1-3.2-1.917a.868.868,0,0,0-.609-.252,2.2,2.2,0,0,0-.5.194c-.5.176-1.029-.158-1.545-.3-1.383-.387-3.142.548-4.168-.458.1.641-.689,1.072-1.338,1.059a5.5,5.5,0,0,0-1.932-.035,1.258,1.258,0,0,1-.719,1.8l.3.664a1.716,1.716,0,0,0-1.321,1.238,16.723,16.723,0,0,0-.171,4.555C599.666,117.958,600.247,122.649,599.837,122.873Z" transform="translate(-462.071 -98.501)" fill="#192534"/>
  <path id="Path_137" data-name="Path 137" d="M603.2,197c-4.566,5.134-5.728,12.361-6.7,19.165l-1.434,10.047c-.372,2.606-.755,5.212-1.079,7.826a20.611,20.611,0,0,0-.191,5.391,29.4,29.4,0,0,0,1.056,4.123,38.874,38.874,0,0,1,1.509,10.94c.3-.9,1.358-1.258,2.284-1.459a36.931,36.931,0,0,1,23.107,2.468c1.27-3.559,1.031-7.453,1.386-11.216.5-5.365,2.236-10.565,2.749-15.92.189-1.995.211-4,.231-6a20.1,20.1,0,0,0-.277-4.4,18.469,18.469,0,0,0-1.811-4.528,117.982,117.982,0,0,0-6.872-11.677q-1.9-2.837-3.957-5.562-1.044-1.381-2.131-2.732c-.7-.873-1.006-1.63-2.12-1.107A19.683,19.683,0,0,0,603.2,197Z" transform="translate(-457.675 -161.451)" fill="#5185eb"/>
  <path id="Path_138" data-name="Path 138" d="M620.893,375.738a24.656,24.656,0,0,1-3.338-.106,7.242,7.242,0,0,0-2.465,0,2.565,2.565,0,0,0-.958.47.722.722,0,0,0,.41,1.258l.86.075a2.419,2.419,0,0,1,1.54.5.961.961,0,0,1,.312.606c.053.586-.455.906-.911,1.15a7.22,7.22,0,0,0-1.776,1.182,2.461,2.461,0,0,0-.737,1.509.292.292,0,0,0,.428.269c1.006-.5,1.663-1.995,2.767-1.746a4.483,4.483,0,0,0-2.43,1.869,1.127,1.127,0,0,0,1.509,1.592,4.977,4.977,0,0,0,.473-.314,11.62,11.62,0,0,0,1.995-2.073c-.8,1.7-1.62,3.685-.694,5.373a.536.536,0,0,0,.5.3c.292-.03.377-.3.425-.546a7.61,7.61,0,0,1,.571-2.289c.885-1.6,3.069-1.761,4.732-2.543a7.587,7.587,0,0,0,3.911-5.046,3.878,3.878,0,0,0,.1-1.917,2.172,2.172,0,0,0-3.27-1.069A6.764,6.764,0,0,1,620.893,375.738Z" transform="translate(-472.756 -297.452)" fill="#fbbebe"/>
  <path id="Path_139" data-name="Path 139" d="M630.816,233.2c1.761,2.719,4.817,4.251,7.438,6.16a6.236,6.236,0,0,1,1.645,1.565,5.37,5.37,0,0,1,.619,3.522,22.3,22.3,0,0,1-1.187,4.628l-1.1,3.283a20.331,20.331,0,0,1-2.742,5.959,2.515,2.515,0,0,0-.719,1.479,1.913,1.913,0,0,0,.322.9,6.057,6.057,0,0,0,3.846,2.747,2.933,2.933,0,0,0,1.446,0,3.919,3.919,0,0,0,1.663-1.278,44.479,44.479,0,0,0,6.163-7.961,41.656,41.656,0,0,0,3.434-9.184,19.345,19.345,0,0,0,.755-3.554,12.991,12.991,0,0,0-1.379-6.573,32.442,32.442,0,0,0-3.683-5.695,39.633,39.633,0,0,0-4.314-4.95c-2.737-2.558-6.085-4.062-9.747-2.611-2.586,1.026-3.554,3.167-3.786,5.909A8.991,8.991,0,0,0,630.816,233.2Z" transform="translate(-484.444 -183.067)" opacity="0.1"/>
  <path id="Path_140" data-name="Path 140" d="M634.424,230.536c1.761,2.719,4.82,4.251,7.438,6.16a6.257,6.257,0,0,1,1.637,1.575,5.368,5.368,0,0,1,.619,3.522,22.312,22.312,0,0,1-1.19,4.628l-1.1,3.27a20.362,20.362,0,0,1-2.742,5.959,2.519,2.519,0,0,0-.717,1.479,1.867,1.867,0,0,0,.322.9,6.054,6.054,0,0,0,3.844,2.749,2.943,2.943,0,0,0,1.449,0,3.928,3.928,0,0,0,1.663-1.275,44.567,44.567,0,0,0,6.163-7.961,41.632,41.632,0,0,0,3.433-9.186A19.137,19.137,0,0,0,656,238.8a13.029,13.029,0,0,0-1.376-6.575,32.2,32.2,0,0,0-3.683-5.695,39.662,39.662,0,0,0-4.324-4.923c-2.734-2.556-6.082-4.062-9.745-2.609-2.588,1.026-3.554,3.164-3.788,5.909A9,9,0,0,0,634.424,230.536Z" transform="translate(-487.137 -181.095)" fill="#5185eb"/>
  <path id="Path_141" data-name="Path 141" d="M825.947,603.146a9.308,9.308,0,0,1-.2,1.952c-.025.121-.053.251-.08.355-.714,2.865-2.729,4.96-5.134,5.094h-.252c-2.543,0-4.694-2.193-5.4-5.215-.02-.08-.038-.161-.055-.252a9.307,9.307,0,0,1-.2-1.952c0-4.093,2.533-7.408,5.66-7.408S825.947,599.061,825.947,603.146Z" transform="translate(-623.038 -463.478)" fill="#3f3d56"/>
  <path id="Path_142" data-name="Path 142" d="M825.977,603.183a9.308,9.308,0,0,1-.2,1.952c-.025.121-.053.251-.08.355h-.252a11.506,11.506,0,0,1-1.851-.252,11.288,11.288,0,0,1-1.65.377,11.514,11.514,0,0,1-1.293.121h-.438a11.669,11.669,0,0,1-1.551-.1,11.353,11.353,0,0,1-2.431-.6,11.478,11.478,0,0,1-1.313.352c-.02-.081-.038-.161-.055-.252a9.308,9.308,0,0,1-.2-1.952c0-4.093,2.533-7.408,5.66-7.408S825.977,599.1,825.977,603.183Z" transform="translate(-623.068 -463.515)" opacity="0.1"/>
  <path id="Path_143" data-name="Path 143" d="M797.677,520.763a11.456,11.456,0,0,0-1.233-5.184l-6.656,2.07,5.843-3.436a11.5,11.5,0,0,0-8.643-4.925,11.463,11.463,0,0,0-.9-1.187l-9.559,2.976,7.841-4.611a11.5,11.5,0,0,0-18.111,6.135l8.188,9.425-8.882-6.424a15.393,15.393,0,0,0,17.661,20.5A11.516,11.516,0,0,0,797.22,524.87a7.528,7.528,0,0,0-.025-.755,11.472,11.472,0,0,0,.483-3.353Z" transform="translate(-582.695 -394.895)" fill="#5185eb"/>
  <path id="Path_144" data-name="Path 144" d="M797.428,571a30.668,30.668,0,0,0-10.65-.136c-4,.662-8.082,2.116-11.991,1.054-2.294-.624-4.276-2.068-6.518-2.87a12.371,12.371,0,0,0-6.729-.4,18.664,18.664,0,0,0,21.625,15.563,11.516,11.516,0,0,0,13.991-11.234c0-.252,0-.5-.025-.755A11.4,11.4,0,0,0,797.428,571Z" transform="translate(-582.644 -442.997)" opacity="0.1"/>
</svg>
