<svg xmlns="http://www.w3.org/2000/svg" xmlns:xlink="http://www.w3.org/1999/xlink" width="264.117" height="191.122" viewBox="0 0 264.117 191.122">
  <defs>
    <linearGradient id="linear-gradient" x1="0.5" y1="1.001" x2="0.5" gradientUnits="objectBoundingBox">
      <stop offset="0" stop-color="gray" stop-opacity="0.251"/>
      <stop offset="0.54" stop-color="gray" stop-opacity="0.122"/>
      <stop offset="1" stop-color="gray" stop-opacity="0.102"/>
    </linearGradient>
  </defs>
  <g id="undraw_fatherhood_7i19" transform="translate(0.01 0.003)">
    <path id="Path_8" data-name="Path 8" d="M63.3,484.53c4.142,19.125,12.909,35.657,26.762,43.681,28.8,16.653,93.737,8.063,142.2-1.8,24.49-4.969,46.72-18.7,63.11-38.977Z" transform="translate(-60.253 -383.065)" fill="#5185eb" opacity="0.1"/>
    <path id="Path_9" data-name="Path 9" d="M340.4,75.361H313.639a2.488,2.488,0,0,1,0-4.964h4.627a2.5,2.5,0,0,1,0-4.967h-3.3a2.5,2.5,0,0,1,0-4.967H328.93a35.02,35.02,0,0,0-10.9-3.224c-38.088-5.25-51.686-1.776-56.483,1.8a51.576,51.576,0,0,1-19.577,9.212c-23.5,5.2-67.448,11.467-107.281-2.005-19.8-6.7-34.51,4.619-43.331,23.528H345.047A47.137,47.137,0,0,0,341.9,74.766,2.2,2.2,0,0,1,340.4,75.361Z" transform="translate(-81.08 -54.56)" fill="#5185eb" opacity="0.1"/>
    <path id="Path_10" data-name="Path 10" d="M52.016,329.66a135.818,135.818,0,0,0,1.037,33.366l234.917,9.227a119.7,119.7,0,0,0,16.322-26.731Zm92.912,23.8H140.3a2.488,2.488,0,0,1,0,4.964H113.547a2.488,2.488,0,0,1,0-4.964h4.625a2.5,2.5,0,0,1,0-4.967h-3.3a2.5,2.5,0,0,1,0-4.967h26.757a2.5,2.5,0,0,1,0,4.967h3.3a2.5,2.5,0,0,1,0,4.967Z" transform="translate(-51.45 -264.353)" fill="#5185eb" opacity="0.1"/>
    <path id="Path_11" data-name="Path 11" d="M317.338,191.84l-257.183,6.7A116.446,116.446,0,0,0,54,226.979H312.832a125,125,0,0,0,3.738-18.128A91.909,91.909,0,0,0,317.338,191.84ZM106.213,213.79h-4.638a2.488,2.488,0,0,1,0,4.964H74.744a2.488,2.488,0,0,1,0-4.964h4.638a2.5,2.5,0,0,1,0-4.967H76.07a2.5,2.5,0,0,1,0-4.967H102.9a2.5,2.5,0,0,1,0,4.967h3.312a2.5,2.5,0,0,1,0,4.967Z" transform="translate(-53.35 -159.128)" fill="#5185eb" opacity="0.1"/>
    <ellipse id="Ellipse_13" data-name="Ellipse 13" cx="89.911" cy="4.866" rx="89.911" ry="4.866" transform="translate(45.319 181.387)" fill="#5185eb" opacity="0.1"/>
    <path id="Path_12" data-name="Path 12" d="M893.427,687.74s1.415,1.853-.655,4.64-3.776,5.155-3.093,6.9c0,0,3.121-5.194,5.67-5.266S896.221,690.864,893.427,687.74Z" transform="translate(-688.141 -537.271)" fill="#5185eb"/>
    <path id="Path_13" data-name="Path 13" d="M893.675,687.74a2.389,2.389,0,0,1,.289.58c2.48,2.915,3.8,5.634,1.418,5.7-2.222.064-4.884,4.034-5.521,5.036a1.988,1.988,0,0,0,.075.229s3.121-5.194,5.671-5.266S896.469,690.864,893.675,687.74Z" transform="translate(-688.391 -537.271)" opacity="0.1"/>
    <path id="Path_14" data-name="Path 14" d="M913.927,695.7c0,.652-.072,1.181-.162,1.181s-.165-.528-.165-1.181.093-.345.183-.345S913.927,695.046,913.927,695.7Z" transform="translate(-706.07 -542.867)" fill="#ffd037"/>
    <path id="Path_15" data-name="Path 15" d="M915.155,698.629c-.572.312-1.07.5-1.114.42s.387-.4.959-.709.345-.085.389,0S915.727,698.317,915.155,698.629Z" transform="translate(-706.462 -545.021)" fill="#ffd037"/>
    <path id="Path_16" data-name="Path 16" d="M866.485,687.74s-1.415,1.853.655,4.64,3.773,5.155,3.093,6.9c0,0-3.124-5.194-5.671-5.266S863.689,690.864,866.485,687.74Z" transform="translate(-668.222 -537.271)" fill="#5185eb"/>
    <path id="Path_17" data-name="Path 17" d="M866.469,687.74a2.284,2.284,0,0,0-.289.58c-2.48,2.915-3.8,5.634-1.418,5.7,2.219.064,4.9,4.034,5.521,5.036-.021.077-.046.152-.075.229,0,0-3.124-5.194-5.671-5.266S863.673,690.864,866.469,687.74Z" transform="translate(-668.201 -537.271)" opacity="0.1"/>
    <path id="Path_18" data-name="Path 18" d="M865.43,695.7c0,.652.072,1.181.162,1.181s.165-.528.165-1.181-.093-.345-.183-.345S865.43,695.046,865.43,695.7Z" transform="translate(-669.496 -542.867)" fill="#ffd037"/>
    <path id="Path_19" data-name="Path 19" d="M860.919,698.629c.572.312,1.072.5,1.116.42s-.387-.4-.959-.709-.345-.085-.389,0S860.347,698.317,860.919,698.629Z" transform="translate(-665.863 -545.021)" fill="#ffd037"/>
    <path id="Path_20" data-name="Path 20" d="M867.18,725.427s3.959-.124,5.155-.972,6.091-1.866,6.387-.516,5.949,6.776,1.479,6.812-10.385-.7-11.576-1.42S867.18,725.427,867.18,725.427Z" transform="translate(-671.571 -563.652)" fill="#a8a8a8"/>
    <path id="Path_21" data-name="Path 21" d="M880.286,736.449c-4.469.036-10.385-.7-11.576-1.42-.907-.554-1.268-2.536-1.389-3.449h-.131s.258,3.191,1.441,3.918,7.106,1.456,11.576,1.42c1.289,0,1.737-.469,1.711-1.15C881.738,736.186,881.245,736.441,880.286,736.449Z" transform="translate(-671.579 -569.811)" opacity="0.2"/>
    <path id="Path_22" data-name="Path 22" d="M293.08,723.463a3.022,3.022,0,0,0,.99-1.492,1.337,1.337,0,0,0-.691-1.518c-.634-.242-1.312.2-1.827.642a2.436,2.436,0,0,1-1.773.856,2.7,2.7,0,0,0,.835-2.529,1.062,1.062,0,0,0-.232-.516c-.353-.376-.99-.217-1.413.08-1.34.943-1.714,2.766-1.722,4.4a8.275,8.275,0,0,1-.023-1.8,1.864,1.864,0,0,0-.68-1.606,2.062,2.062,0,0,0-1.031-.242,2.155,2.155,0,0,0-1.686.477,1.658,1.658,0,0,0,.067,2.062,6.689,6.689,0,0,0,1.742,1.4,3.866,3.866,0,0,1,1.248,1.188,1.482,1.482,0,0,1,.093.214h3.776A10.5,10.5,0,0,0,293.08,723.463Z" transform="translate(-227.794 -560.24)" fill="#5185eb"/>
    <path id="Path_23" data-name="Path 23" d="M200.14,639.963s-3.624-12.3.678-21.347a19.424,19.424,0,0,0,1.577-12.189,32.533,32.533,0,0,0-1.724-5.717" transform="translate(-160.763 -472.673)" fill="none" stroke="#535461" stroke-miterlimit="10" stroke-width="2"/>
    <path id="Path_24" data-name="Path 24" d="M200.947,570.891c0,1.508-2.727,5.879-2.727,5.879s-2.73-4.382-2.73-5.879a2.73,2.73,0,0,1,5.457,0Z" transform="translate(-158.371 -444.474)" fill="#5185eb"/>
    <path id="Path_25" data-name="Path 25" d="M218.365,598.949c-.817,1.266-5.485,3.451-5.485,3.451s.085-5.155.9-6.418a2.73,2.73,0,0,1,4.58,2.967Z" transform="translate(-171.278 -464.587)" fill="#5185eb"/>
    <path id="Path_26" data-name="Path 26" d="M214.747,651.37c-1.345.678-6.477.209-6.477.209s2.675-4.4,4.021-5.083a2.729,2.729,0,1,1,2.457,4.875Z" transform="translate(-167.856 -503.498)" fill="#5185eb"/>
    <path id="Path_27" data-name="Path 27" d="M205.108,693.548c-1.211.9-6.348,1.289-6.348,1.289s1.892-4.792,3.093-5.689a2.73,2.73,0,1,1,3.245,4.382Z" transform="translate(-160.798 -537.857)" fill="#5185eb"/>
    <path id="Path_28" data-name="Path 28" d="M188.114,611.782c1.08,1.049,6.116,2.139,6.116,2.139s-1.235-5-2.32-6.055a2.73,2.73,0,1,0-3.8,3.915Z" transform="translate(-152.24 -473.848)" fill="#5185eb"/>
    <path id="Path_29" data-name="Path 29" d="M175.245,659.51c1.345.678,6.477.209,6.477.209s-2.675-4.4-4.021-5.083a2.729,2.729,0,1,0-2.457,4.875Z" transform="translate(-142.229 -509.675)" fill="#5185eb"/>
    <path id="Path_30" data-name="Path 30" d="M172.474,709.478c1.211.894,6.346,1.289,6.346,1.289s-1.889-4.792-3.093-5.689a2.73,2.73,0,0,0-3.245,4.382Z" transform="translate(-140.551 -549.799)" fill="#5185eb"/>
    <path id="Path_31" data-name="Path 31" d="M200.947,570.891c0,1.508-2.727,5.879-2.727,5.879s-2.73-4.382-2.73-5.879a2.73,2.73,0,0,1,5.457,0Z" transform="translate(-158.371 -444.474)" fill="#5185eb"/>
    <path id="Path_32" data-name="Path 32" d="M218.365,598.949c-.817,1.266-5.485,3.451-5.485,3.451s.085-5.155.9-6.418a2.73,2.73,0,0,1,4.58,2.967Z" transform="translate(-171.278 -464.587)" fill="#5185eb"/>
    <path id="Path_33" data-name="Path 33" d="M214.747,651.37c-1.345.678-6.477.209-6.477.209s2.675-4.4,4.021-5.083a2.729,2.729,0,1,1,2.457,4.875Z" transform="translate(-167.856 -503.498)" fill="#5185eb"/>
    <path id="Path_34" data-name="Path 34" d="M205.108,693.548c-1.211.9-6.348,1.289-6.348,1.289s1.892-4.792,3.093-5.689a2.73,2.73,0,1,1,3.245,4.382Z" transform="translate(-160.798 -537.857)" fill="#5185eb"/>
    <path id="Path_35" data-name="Path 35" d="M188.114,611.782c1.08,1.049,6.116,2.139,6.116,2.139s-1.235-5-2.32-6.055a2.73,2.73,0,1,0-3.8,3.915Z" transform="translate(-152.24 -473.848)" fill="#5185eb"/>
    <path id="Path_36" data-name="Path 36" d="M175.245,659.51c1.345.678,6.477.209,6.477.209s-2.675-4.4-4.021-5.083a2.729,2.729,0,1,0-2.457,4.875Z" transform="translate(-142.229 -509.675)" fill="#5185eb"/>
    <path id="Path_37" data-name="Path 37" d="M172.474,709.478c1.211.894,6.346,1.289,6.346,1.289s-1.889-4.792-3.093-5.689a2.73,2.73,0,0,0-3.245,4.382Z" transform="translate(-140.551 -549.799)" fill="#5185eb"/>
    <path id="Path_38" data-name="Path 38" d="M171,737.61s4.413-.876,5.588-2.044,6.47-3.212,7.057-1.753,7.939,6.423,2.938,7.3-11.761,1.168-13.23.583S171,737.61,171,737.61Z" transform="translate(-140.193 -571.093)" fill="#a8a8a8"/>
    <path id="Path_39" data-name="Path 39" d="M186.591,752.86c-5,.876-11.761,1.168-13.23.585-1.119-.446-1.9-2.578-2.2-3.575L171,749.9s.884,3.5,2.353,4.085,8.233.291,13.23-.583c1.443-.258,1.856-.848,1.7-1.6C188.169,752.3,187.666,752.672,186.591,752.86Z" transform="translate(-140.193 -583.387)" opacity="0.2"/>
    <path id="Path_40" data-name="Path 40" d="M463.627,172.5a4.333,4.333,0,0,0,.843-3.682s-6.531-15.492-7.256-15.662-2.541-4.078-2.541-4.078-17.416-15.408-18.043-15.408-6.985-4.256-7.8-4.339a11.185,11.185,0,0,1-3.449-1.2c-1.361-.688-15.151.086-15.694.681s-3.093,1.022-3.093,1.022-5.171.254-5.9,1.106-6.075,1.3-6.075,1.3-2.632.912.941,3.332h0c-1.144.168-2.482.3-3.84.389-.34.022-.686.043-1.031.06h-.2a3.167,3.167,0,0,0-1.268-1.586,11.028,11.028,0,0,0-1.2-.521,9.666,9.666,0,0,1-1.784-1.139,58.993,58.993,0,0,0-8.434-5.2,4.227,4.227,0,0,0-1.5-.525c-1.106-.1-2.093.624-3.176.866-1.9.425-3.82-.655-5.776-.672a5.884,5.884,0,0,0-5.413,3.932,6.094,6.094,0,0,1-.995,2.348c-.773.837-2.08.96-3.139,1.456a4.381,4.381,0,0,0-2.547,3.908v.019a2.107,2.107,0,0,0,.023.381,12.674,12.674,0,0,0,1.005,2.948,11.474,11.474,0,0,1,.722,3.094.147.147,0,0,1,0,.034c.015.175.028.35.036.528v.621c0,.916-.034,1.84-.031,2.756v.564a3.009,3.009,0,0,0,.015.369v.13a3.043,3.043,0,0,0,.031.341.563.563,0,0,0,.013.146,2.306,2.306,0,0,0,.044.326l.023.154c.018.108.039.216.059.324l.031.149c.026.115.057.24.088.345.013.041.021.079.031.12q.07.24.155.461a7.072,7.072,0,0,0,4.81,4.22,4.781,4.781,0,0,0,1.276.149,2.757,2.757,0,0,0,1.972-.732c.113.12.224.24.343.36a16.114,16.114,0,0,0,13.416,4.519,15.459,15.459,0,0,0,11.671-7.637c.271-.055.539-.106.809-.154.469-.082.941-.158,1.415-.24l.456-.067h0l.18-.029c2.32-.341,4.573-.569,6.186-.72l-6.377.736s-1.547,6.911-1.992,7.676,1.547,2.041,1.547,2.041,1.724,1.957,1.724,2.555,2,2.3,2.539,3.234a1.452,1.452,0,0,0,.258.324,3.706,3.706,0,0,0-1.1.621c-1.26,1.111-.84,3.058-1.418,4.584a7.784,7.784,0,0,1-1.843,2.492,3.421,3.421,0,0,0-.65.837,1.943,1.943,0,0,0-.173.643h0a2.929,2.929,0,0,0-.015.369v.043a1.3,1.3,0,0,0,.021.283v.122c.126,1,.492,1.972.6,2.975a26.651,26.651,0,0,0,.2,2.989,4.246,4.246,0,0,0,.356.986l-3.691,3.838s-.023.189-.031.5c-3.078,2.377-7.836,6.863-6.137,10.819q.278.65.516,1.245c-1.25.741-1.663,1.622.211,2.5.3.139.583.259.863.367.961,2.627,1.338,3.358,2.949,1.422.173-.211.374-.48.593-.77a6.573,6.573,0,0,0,3.58-1.019s6.348-.341,7.99.6c.822.48,2.755.576,4.467.564a40.545,40.545,0,0,0,.258,5.138s-.273,7.235.454,8.768a19,19,0,0,1,1.129,4.172s-1.219,2.552-.495,3.915-.634,3.32-.634,3.32v5.021l.515-.034c-.039.338-.088.693-.152,1.031a2.9,2.9,0,0,1-.719,1.715c-.907.607-1,3.838-1,3.838s-1.451,3.917-1.181,4.6-1.722,2.041-1.268,3.063,1.382,7.489,2.188,9.355-1.644,1.362-1.644,1.362l.724,4.85s.727,4.937.183,5.277-3.673,2.809-1.521,4.256c.168.113.338.216.515.314a4.825,4.825,0,0,1-.018.672c-.041.381-.144.686-.374.72-.639.086-1.91.681-2.178.427s-1.8.643-3.351.936l-.214.031-2.008-.48a15.124,15.124,0,0,0-9.073-.312A3.547,3.547,0,0,0,383,279.122a2.487,2.487,0,0,0-.2,2.264c.969,3.008,7.575,4.044,7.575,4.044s2.289.439,5.039,1.02h-.276a2.961,2.961,0,0,0-3.041,2.559,2.864,2.864,0,0,0,2.476,3.042,3.049,3.049,0,0,0,3.471-2.032,2.785,2.785,0,0,0-1.874-3.394,65.18,65.18,0,0,1,7.91,2.037,25.576,25.576,0,0,0,3.178.888,2.88,2.88,0,0,0,2.343,2.505,3.107,3.107,0,0,0,3.271-1.33c4.209.818,8.263,1.511,8.263,1.511l6.771.1h.046a3.025,3.025,0,1,0,.041,0l10.251.156a2.7,2.7,0,0,0,.925,2.928,3.205,3.205,0,0,0,3.248.424,2.809,2.809,0,0,0,1.756-2.578,2.628,2.628,0,0,0-.093-.686l9.042.137,1.8-1.847a1.416,1.416,0,0,0,.178-.578c.054-.607-.284-1.528-2.593-1.919-.17-.029-4.882.041-9.045.106v-1.521s-.116-.837-.188-1.823c-.021-.29-.039-.592-.046-.89a2.574,2.574,0,0,0,.773.329c1.724.257,4.083-4.426,4.083-4.426a22.75,22.75,0,0,1,.544-4.766c.544-2.128,1.547-9.279,1.547-9.279l2.181-8.6s.9-17.535.449-18.217.546-1.873.546-1.873.724-3.745-.363-5.021.634-2.555.634-2.555.454-4.426-.817-6.127a1.967,1.967,0,0,1,.6-2.893l.454-6.894c1.9-1.787,3.627-12.426,3.719-14.724a8.912,8.912,0,0,1,.907-3.747,9.619,9.619,0,0,0,1.451-2.979,16.979,16.979,0,0,1,1.547-3.658l2.358-8.173a11.887,11.887,0,0,0,.077-7.47C463.825,172.936,463.727,172.713,463.627,172.5Zm-42.609.48c1.451.852,1,1.106,1.451,1.617s.09.425-.273,1.276-.09.6.09,1.533.093.936.093.936l.454.06-.631,3.951a4.249,4.249,0,0,0-1.717,3.063c-.608-.739-1.222-1.506-1.771-2.221a3.063,3.063,0,0,0,.157-1.3,25.5,25.5,0,0,1,.863-4.232,9.969,9.969,0,0,0-.147-4.344,6.315,6.315,0,0,0-.606-1.542c.588.365,1.333.8,2.036,1.209Zm1.632,83.414s1.147-.72,2.26-1.375c.374,2.526.727,5.153.977,7.527-.4-.825-.678-1.387-.678-1.387a2.75,2.75,0,0,1-.7-1.617c-.044-.926-1.858-3.14-1.858-3.14Zm-6.8-87.49a2.188,2.188,0,0,1,.969.7c-.32-.24-.642-.48-.972-.705Zm-16.6,31.492a33.255,33.255,0,0,1-6.7.146c.789-1.255,1.572-2.531,2.268-3.675a8.943,8.943,0,0,0,1.25.209l6.905-5.644a12.728,12.728,0,0,0,8.016-.048l.188.273c.08.12.165.24.258.374l-.173-.261s-2.665,1.478-2.395,2.159-.361,2.382-1.358,4.205c-.258.456-.482.907-.7,1.36A75.351,75.351,0,0,0,399.246,200.395Zm13.1,78.643-.039-.674c.438-.089.727-.17.727-.17a24.831,24.831,0,0,0-.454-2.979c-.273-1.022-.131-.681.931-1.439s0-9.355,0-9.355.515-.6,1.333.936a6.976,6.976,0,0,0,1.91,2.552c.273.084-1.09,1.79,0,3.406a9.375,9.375,0,0,1,1.358,3.4s-.724,2.7.363,3.905a1.607,1.607,0,0,0,.516.329v.684a7.8,7.8,0,0,1-.023.914.345.345,0,0,1-.226.258.386.386,0,0,1-.354-.047c-.281-.17-2.062.211-1.941,1.279a8.229,8.229,0,0,1-1.423,1.24l-2.472-.595Z" transform="translate(-285.378 -108.362)" fill="url(#linear-gradient)"/>
    <path id="Path_41" data-name="Path 41" d="M490.3,390.047s-.863,7.075,5.985,7.8l1.031-4.9-2.157-2.9L492.067,389Z" transform="translate(-384.822 -308.428)" fill="#5185eb"/>
    <path id="Path_42" data-name="Path 42" d="M492.067,389l-1.768,1.044s-.863,7.075,5.985,7.8" transform="translate(-384.794 -308.428)" opacity="0.1"/>
    <path id="Path_43" data-name="Path 43" d="M482.385,184.359s-4.621.284-9.256,1.052q-.711.121-1.415.258c-.273.052-.541.106-.809.165a19.191,19.191,0,0,0-5.928,1.98c-1.547.992-2.062-1.681-2.111-5.395-.021-1.307.023-2.74.093-4.188.09-1.675.222-3.371.361-4.9.307-3.382.66-6.011.66-6.011s1.619,0,3.781-.075l.7-.026c.678-.026,1.4-.062,2.121-.106.343-.018.688-.039,1.031-.064,1.371-.1,2.724-.237,3.866-.418a8.442,8.442,0,0,0,2.74-.773C480.663,164.4,482.385,184.359,482.385,184.359Z" transform="translate(-364.344 -137.118)" fill="#f8bdc5"/>
    <path id="Path_44" data-name="Path 44" d="M610.914,334.5l-.9,5.988s-1.967,2.449-1.709,3.81,2.526,61.5,2.526,61.5,4.446,25.4,2.9,28.665-.09,10.887-.09,10.887l9.253-1.451,3.093-111.037Z" transform="translate(-474.869 -273.869)" fill="#474463"/>
    <path id="Path_45" data-name="Path 45" d="M610.914,334.5l-.9,5.988s-1.967,2.449-1.709,3.81,2.526,61.5,2.526,61.5,4.446,25.4,2.9,28.665-.09,10.887-.09,10.887l9.253-1.451,3.093-111.037Z" transform="translate(-474.869 -273.869)" opacity="0.1"/>
    <path id="Path_46" data-name="Path 46" d="M645.549,755.155a7.72,7.72,0,0,0-.188,3.139c.072,1.049.188,1.941.188,1.941V766.4s-9.887-3.446-15.331-7.075c-2.245-1.5-2.884-2.889-2.76-4a3.26,3.26,0,0,1,2.76-2.619c.815,0,3.387-1.42,5.5-2.675,1.657-.982,3.034-1.861,3.034-1.861S646.093,754.248,645.549,755.155Z" transform="translate(-489.457 -582.125)" fill="#575988"/>
    <path id="Path_47" data-name="Path 47" d="M669.366,755.155a7.72,7.72,0,0,0-.188,3.139c-2.2-1.031-9.006-7.635-9.648-8.263,1.657-.982,3.034-1.861,3.034-1.861S669.91,754.248,669.366,755.155Z" transform="translate(-513.522 -582.125)" opacity="0.1"/>
    <path id="Path_48" data-name="Path 48" d="M651.235,321.464l-2.358,8.709a18.9,18.9,0,0,0-1.547,3.9,10.592,10.592,0,0,1-1.451,3.175,10.053,10.053,0,0,0-.907,3.99c-.09,2.451-1.8,13.79-3.719,15.694l-.454,7.349a2.185,2.185,0,0,0-.544,3.093c1.26,1.825.817,6.531.817,6.531s-1.724,1.361-.634,2.722.361,5.354.361,5.354-1,1.268-.544,1.995-.448,19.414-.448,19.414l-2.181,9.16s-1,7.622-1.547,9.89a25.552,25.552,0,0,0-.544,5.078s-2.358,4.99-4.083,4.719-10.068-8.439-10.068-8.439l1.178-27.579s1-11.7.363-13.97-1.088-13.607-1.088-13.607l-1.271-17.87-12.687-19.958s-.92-5.807,1.709-7.529l.477-3.137.43-2.851,15.06-1.634,23.04-5.985a7.428,7.428,0,0,1,2.706,3.83A13.38,13.38,0,0,1,651.235,321.464Z" transform="translate(-475.565 -256.656)" fill="#474463"/>
    <path id="Path_49" data-name="Path 49" d="M581.26,363.126s-10.7,13.145-10.251,9.472c.284-2.307-1.18-5.124-2.32-6.905-.673-1.059-1.229-1.753-1.229-1.753s6.531-11.973,6.895-10.341a13.313,13.313,0,0,0,1.843,3.049C578.247,359.479,581.26,363.126,581.26,363.126Z" transform="translate(-443.693 -281.74)" fill="#ffc1c8"/>
    <path id="Path_50" data-name="Path 50" d="M645.549,785.739v1.289s-9.887-3.446-15.331-7.075c-2.245-1.5-2.884-2.889-2.76-4,3.005,1.521,8.6,4.42,10.289,5.727A53.538,53.538,0,0,0,645.549,785.739Z" transform="translate(-489.456 -602.744)" fill="#fff" opacity="0.3"/>
    <circle id="Ellipse_14" data-name="Ellipse 14" cx="3.023" cy="3.023" r="3.023" transform="translate(150.338 181.843)" fill="#474463"/>
    <circle id="Ellipse_15" data-name="Ellipse 15" cx="3.023" cy="3.023" r="3.023" transform="translate(121.537 177.598)" fill="#474463"/>
    <path id="Path_51" data-name="Path 51" d="M534.057,769.191a1.594,1.594,0,0,1-.178.616l-1.8,1.967-25.218-.4-6.781-.111s-14.274-2.6-17.055-3.81S469.3,764.02,469.3,764.02s-6.6-1.108-7.573-4.312a2.771,2.771,0,0,1,.2-2.413,3.479,3.479,0,0,1,2.163-1.307,14.254,14.254,0,0,1,9.073.335L515.435,767.2l.655.168s15.068-.281,15.372-.227C533.774,767.562,534.111,768.544,534.057,769.191Z" transform="translate(-365.24 -587.495)" fill="#5185eb"/>
    <path id="Path_52" data-name="Path 52" d="M534.057,774.635c-2.536-.33-6.959-.817-8.1-.348,0,0-8.044-.995-19.112,2.526l-6.771-.111s-14.274-2.6-17.055-3.81-13.715-3.428-13.715-3.428-6.6-1.108-7.573-4.312a2.771,2.771,0,0,1,.2-2.413c.451,1.315,1.32,3.219,2.706,3.753,2.178.838,11.13,2.544,11.13,2.544l17.718,4.338s10.23,2.219,14.212.773a45.732,45.732,0,0,1,7.733-1.521l.655.168s15.068-.281,15.372-.227C533.774,773.006,534.111,773.988,534.057,774.635Z" transform="translate(-365.24 -592.939)" fill="#fff" opacity="0.3"/>
    <path id="Path_53" data-name="Path 53" d="M594.993,767.591a8.38,8.38,0,0,1-.142,1.131s-10.021.358-15.238-.415a3.851,3.851,0,0,1-2.66-1.227,1.884,1.884,0,0,1-.188-1.8,2.834,2.834,0,0,1,.219-.484c.389-.681.987-1.162,1.314-1.1.907.183,2.464-1.678,2.464-1.678-.124-1.137,1.662-1.547,1.941-1.361a.363.363,0,0,0,.58-.227c.018-.085.023-.495.023-.974,0-.8-.023-1.8-.023-1.8l10.073,1.224.4,1.925c.366,1.717.876,4.075,1.1,4.882A5.827,5.827,0,0,1,594.993,767.591Z" transform="translate(-450.818 -589.161)" fill="#474463"/>
    <path id="Path_54" data-name="Path 54" d="M595.96,794.573a8.38,8.38,0,0,1-.142,1.131s-10.021.358-15.238-.415a3.851,3.851,0,0,1-2.66-1.227,16.433,16.433,0,0,1,4.155.139C583.611,794.583,592.8,794.583,595.96,794.573Z" transform="translate(-451.795 -616.143)" opacity="0.1"/>
    <path id="Path_55" data-name="Path 55" d="M513.467,755.9a.516.516,0,0,1-.219.485c-1.268.979-7.354-.085-7.354-.085s-12.434-.773-14.292-2.041a1.312,1.312,0,0,1-.41-.43c-.773-1.4,2.026-3.743,2.268-3.743s3.585-.456,3.81-.5c1.547-.312,3.093-1.271,3.351-1s1.547-.363,2.175-.454c.229-.034.335-.358.374-.773a8.592,8.592,0,0,0-.057-1.683l9.931,2.673.088,1.583.286,5.268.036.647A.235.235,0,0,1,513.467,755.9Z" transform="translate(-385.878 -580.276)" fill="#474463"/>
    <path id="Path_56" data-name="Path 56" d="M506.322,779.772S493.888,779,492.03,777.73a1.312,1.312,0,0,1-.41-.43c2.518.206,6.717.554,7.475.747,1.09.258,7.217.634,7.217.634h7.534l.036.647C514.209,781.153,506.322,779.772,506.322,779.772Z" transform="translate(-386.301 -603.746)" opacity="0.1"/>
    <circle id="Ellipse_16" data-name="Ellipse 16" cx="3.023" cy="3.023" r="3.023" transform="translate(107.418 177.598)" fill="#474463"/>
    <circle id="Ellipse_17" data-name="Ellipse 17" cx="3.023" cy="3.023" r="3.023" transform="translate(138.041 183.874)" fill="#474463"/>
    <path id="Path_57" data-name="Path 57" d="M478.771,392.674s-.572,1.031-1.433,2.562c-2.062,3.639-5.771,10.091-7.367,12.132-2.268,2.9-2.085.183-4.536-5.895-1.82-4.521,3.781-9.694,6.776-12.045,1.031-.817,1.753-1.289,1.753-1.289Z" transform="translate(-365.867 -308.128)" fill="#f8bdc5"/>
    <path id="Path_58" data-name="Path 58" d="M489.194,432.83s-7.529.634-8.98,1.088-7.709.18-8.248,0-11.251,2.268-6.351,4.717,7.99,0,7.99,0,6.351-.363,7.99.637,7.619.454,7.619.454Z" transform="translate(-365.622 -341.64)" fill="#ffc1c8"/>
    <path id="Path_59" data-name="Path 59" d="M472.44,183.185c.928,2.374.348,4.441-.745,6.562a21.238,21.238,0,0,0-6.745,2.145c-4.083,2.632-1-20.5-1-20.5s1.974,0,4.477-.1C467.672,174.749,470.543,178.34,472.44,183.185Z" transform="translate(-364.064 -141.205)" opacity="0.1"/>
    <path id="Path_60" data-name="Path 60" d="M411.924,170.841a15.465,15.465,0,1,1-1.547-6.761A15.465,15.465,0,0,1,411.924,170.841Z" transform="translate(-302.353 -129.376)" fill="#f8bdc5"/>
    <path id="Path_61" data-name="Path 61" d="M658.09,313.48a3.542,3.542,0,0,1-2.062,1.431c-3.539,1-28.487,6.985-30.118,6.622-1.441-.32-7.624-1.209-9.05-1.412l.43-2.851,15.06-1.634,23.04-5.985A7.442,7.442,0,0,1,658.09,313.48Z" transform="translate(-482.392 -248.263)" opacity="0.1"/>
    <path id="Path_62" data-name="Path 62" d="M513.218,184.313a86.956,86.956,0,0,0-8.8.979.606.606,0,0,0-.015-.4l6.031-.745s-.881-14.176-4.124-17.574a8.443,8.443,0,0,0,2.74-.773C511.5,164.355,513.218,184.313,513.218,184.313Z" transform="translate(-395.612 -137.071)" opacity="0.1"/>
    <path id="Path_63" data-name="Path 63" d="M499.438,141.809s5.353-.482,6.078-1.389,5.9-1.178,5.9-1.178,2.539-.454,3.093-1.09,14.331-1.451,15.692-.724a10.9,10.9,0,0,0,3.449,1.271c.817.093,7.166,4.624,7.8,4.624s18.043,16.421,18.043,16.421,1.8,4.173,2.541,4.353,7.258,16.692,7.258,16.692.907,3.99-2.629,4.99-28.487,6.985-30.118,6.622-9.343-1.451-9.343-1.451.09,0-.09-1-.454-.727-.093-1.634.727-.817.273-1.361,0-.817-1.451-1.724a18.274,18.274,0,0,1-3.175-2.175c-.083-.271-1.361-2.088-1.995-2.178s-18.416-5.08-18.416-5.08l-4.173-1.361s-1.995-1.361-1.546-2.175,1.992-8.184,1.992-8.184l6.379-.786s-.951-15.362-4.524-17.94S499.438,141.809,499.438,141.809Z" transform="translate(-391.97 -115.858)" fill="#5185eb"/>
    <path id="Path_64" data-name="Path 64" d="M499.31,392.674s-.572,1.031-1.433,2.562c-.134-4.732-3.444-5.65-5.127-5.807,1.031-.817,1.753-1.289,1.753-1.289Z" transform="translate(-386.697 -307.725)" opacity="0.1"/>
    <path id="Path_65" data-name="Path 65" d="M493.125,272.34l.438,2.449s1.724,2.088,1.724,2.722,2,2.449,2.541,3.446,2.449,1.181,1.722,2.9-4.9,14.877-4.9,14.877l-4.263,4.717s7.075-.637,5.985,7.8l9.163-7.99,7.176-13.055s-6.985-13.243-7.256-14.331S493.125,272.34,493.125,272.34Z" transform="translate(-385.367 -220.542)" fill="#5185eb"/>
    <path id="Path_66" data-name="Path 66" d="M583.31,276.792s5.8-4.083,5.8-4.536S583.31,276.792,583.31,276.792Z" transform="translate(-455.467 -219.709)" opacity="0.1"/>
    <path id="Path_67" data-name="Path 67" d="M621,301.73s3.093-.727,3.351-2.358S621,301.73,621,301.73Z" transform="translate(-484.01 -239.97)" opacity="0.1"/>
    <path id="Path_68" data-name="Path 68" d="M630.82,318.456s4.356-2.157,4.173-2.531S630.82,318.456,630.82,318.456Z" transform="translate(-491.498 -252.795)" opacity="0.1"/>
    <path id="Path_69" data-name="Path 69" d="M717.332,272.23s-1.8,1.178-1.268,2.281S717.332,272.23,717.332,272.23Z" transform="translate(-556.051 -219.675)" opacity="0.1"/>
    <path id="Path_70" data-name="Path 70" d="M730.054,274.1s-5.14,4.9-3.977,4.99S730.054,274.1,730.054,274.1Z" transform="translate(-563.716 -221.138)" opacity="0.1"/>
    <path id="Path_71" data-name="Path 71" d="M696.64,568.68s6.622,1.271,6.8,1.724S696.64,568.68,696.64,568.68Z" transform="translate(-541.595 -444.516)" opacity="0.1"/>
    <path id="Path_72" data-name="Path 72" d="M705.79,585.57s3.536,2.178,3.627,2.812S705.79,585.57,705.79,585.57Z" transform="translate(-548.416 -457.374)" opacity="0.1"/>
    <path id="Path_73" data-name="Path 73" d="M702.62,604.58s.544,2.449,1.451,2.812S702.62,604.58,702.62,604.58Z" transform="translate(-545.93 -471.793)" opacity="0.1"/>
    <path id="Path_74" data-name="Path 74" d="M410.177,163.948a.174.174,0,0,1-.013.08,2.284,2.284,0,0,1-1.211,1.949,1.928,1.928,0,0,1-1.374-.126c-1.289-.564-2.436-1.92-3.812-1.593a2.283,2.283,0,0,0-1.438,1.263,6.339,6.339,0,0,0-.516,1.384,4.95,4.95,0,0,0-.07,3.07,3.133,3.133,0,0,0,.232.454c.366.585.882,1.083,1.242,1.673a1.806,1.806,0,0,1-.134,2.348,1.415,1.415,0,0,1-1.2.168,7.145,7.145,0,0,1-1.467-.65,3,3,0,0,0-2.928-.222c-.3.186-.539.454-.825.65a2.975,2.975,0,0,1-1.992.415c-1.639-.168-2.253-1.206-3.505-2.01-.918-.593-2.835-.845-3.382.366-.351.773.17,1.748-.173,2.536s-1.433,1.031-1.938,1.763c-.665.964-.046,2.358-.534,3.428a1.747,1.747,0,0,1-.3.454,15.511,15.511,0,0,1,21.935-21.909l.7-.026c.678-.026,1.4-.062,2.121-.106a5.906,5.906,0,0,1,.4,1.132A9.434,9.434,0,0,1,410.177,163.948Z" transform="translate(-302.098 -129.323)" opacity="0.1"/>
    <path id="Path_75" data-name="Path 75" d="M368.555,156.865c-.353.773.168,1.748-.173,2.534s-1.438,1.031-1.938,1.763c-.668.967-.049,2.361-.534,3.428-.557,1.219-2.237,1.41-3.526,1.054a7.217,7.217,0,0,1-4.81-4.5c-.874-2.487-.309-5.225-.536-7.851a13.024,13.024,0,0,0-.722-3.3,13.989,13.989,0,0,1-1.005-3.142,4.67,4.67,0,0,1,2.521-4.591c1.062-.516,2.369-.662,3.142-1.547a6.789,6.789,0,0,0,.995-2.505,5.94,5.94,0,0,1,5.413-4.188c1.954.015,3.866,1.168,5.776.714,1.08-.258,2.062-1.031,3.176-.92a4.029,4.029,0,0,1,1.5.559,58.558,58.558,0,0,1,8.431,5.542,9.491,9.491,0,0,0,1.786,1.214,11.086,11.086,0,0,1,1.2.554,3.881,3.881,0,0,1,1.505,2.451,9.364,9.364,0,0,1,.191,3.511,2.336,2.336,0,0,1-1.224,2.031,1.925,1.925,0,0,1-1.376-.131c-1.289-.559-2.433-1.915-3.81-1.59-1.124.258-1.665,1.531-1.959,2.647a4.921,4.921,0,0,0-.07,3.072,17.846,17.846,0,0,0,1.472,2.124c.441.74.567,1.845-.134,2.348-.773.559-1.822-.036-2.67-.479a3,3,0,0,0-2.925-.224c-.3.186-.536.454-.825.652a3,3,0,0,1-1.99.412c-1.642-.168-2.255-1.206-3.505-2.01C371.016,155.9,369.1,155.65,368.555,156.865Z" transform="translate(-282.9 -113.384)" fill="#474463"/>
    <path id="Path_76" data-name="Path 76" d="M576.208,356.629c-.07.387-.6.43-.709.807-1.031,3.637-3.3,6.908-6.8,8.248-.673-1.059-1.229-1.753-1.229-1.753s6.531-11.973,6.895-10.341A13.49,13.49,0,0,0,576.208,356.629Z" transform="translate(-443.531 -281.522)" opacity="0.1"/>
    <path id="Path_77" data-name="Path 77" d="M533.15,321.622a11.931,11.931,0,1,1-3.5-8.479A11.976,11.976,0,0,1,533.15,321.622Z" transform="translate(-399.729 -248.555)" fill="#ffc1c8"/>
    <path id="Path_78" data-name="Path 78" d="M547.841,748.383l.088,1.583c-1.049.232-3.044.536-4.207-.175-1.5-.92-3.722-1.144-5.756-2.4a8.588,8.588,0,0,0-.057-1.683Z" transform="translate(-421.111 -580.299)" opacity="0.1"/>
    <path id="Path_79" data-name="Path 79" d="M612.967,760.79c-.07.353-.134.57-.134.57s-8-.82-10.31-1.925c0-.8-.023-1.8-.023-1.8l10.073,1.224Z" transform="translate(-470.208 -589.146)" opacity="0.1"/>
    <path id="Path_80" data-name="Path 80" d="M559.867,590.139c-.544,1.451-.817,1.724-.271,2.449s.271,4.536-.6,4.9-4.124,2.539-4.124,2.539,1.8,2.358,1.858,3.351a3.036,3.036,0,0,0,.7,1.724s2.794,5.988,3.351,7.892,1.067,4.9,1.067,4.9-.977,2.722-.3,4.266a6.654,6.654,0,0,1,0,3.81s-9.746-1-10.826-2.279-.361-4.163-.361-4.163a10.421,10.421,0,0,0-1.361-3.629c-1.09-1.724.258-3.536,0-3.629a7.667,7.667,0,0,1-1.91-2.719c-.82-1.632-1.33-1-1.33-1s1.062,9.163,0,9.98-1.206.454-.933,1.547a28.064,28.064,0,0,1,.454,3.176s-3.266,1-4.9,0-4.088-1.181-6.245-2.722.977-4.173,1.521-4.536-.18-5.624-.18-5.624l-.727-5.17s2.449.544,1.644-1.451-1.735-8.89-2.188-9.978,1.547-2.541,1.271-3.266,1.178-4.9,1.178-4.9.093-3.446,1-4.093a3.2,3.2,0,0,0,.719-1.827,22.721,22.721,0,0,0,.281-2.969s20.772-1.451,24.128.544c1.51.9,1.4,2.549.773,4.222a33.035,33.035,0,0,1-2.76,4.879C560.05,587.749,560.411,588.687,559.867,590.139Z" transform="translate(-418.373 -454.482)" fill="#575988"/>
    <path id="Path_81" data-name="Path 81" d="M577.835,581.478c-2.578.724-6.011,1.789-6.57,2.4-.907,1-3.993-5.624-3.993-5.624s.183,4.98-3.9,2.9c-3.534-1.8-9.238-1.567-10.712-1.469a22.72,22.72,0,0,0,.281-2.969s20.772-1.451,24.128.544C578.58,578.153,578.474,579.805,577.835,581.478Z" transform="translate(-432.855 -450.481)" opacity="0.1"/>
    <path id="Path_82" data-name="Path 82" d="M564.191,379.463s1.8-2.178,2.178-1.361a12.32,12.32,0,0,0,2.5,2.449s.611,1.9,1.686,2.178,9.148,11.158,9.148,11.158l-2.9,5.895-2.358,14.334s.1,2.268-.539,3.093-3.093.634-1.956,1.632,2.768,1.9,3.676,6.444a42.173,42.173,0,0,0,1.995,7.166s-8.526,2.178-9.434,3.175S564.191,430,564.191,430s.183,4.977-3.9,2.9-11.068-1.446-11.068-1.446V426.09s1.361-2.088.637-3.539.495-4.173.495-4.173a21.366,21.366,0,0,0-1.132-4.444c-.727-1.632-.454-9.344-.454-9.344s-.552-4.99-.049-7.532a22.531,22.531,0,0,1,2.235-6.31c1-1.943,1.629-3.758,1.358-4.485s2.395-2.3,2.395-2.3l1.477,2.389.376,1.428S564.375,382.185,564.191,379.463Z" transform="translate(-429.903 -301.84)" fill="#dce6f2"/>
    <path id="Path_83" data-name="Path 83" d="M599.934,432.83s5.08,4.987,5.624,5.8,2.366,5.065.008,6.354-11.6,3.276-12.516,2.59-6.444.773-6.444.773-9.243,2.268-7.248-1.451,6.714-3.093,6.714-3.093,7.624-.013,8.439-.773,6.959-2.392,5.567-5.753S599.934,432.83,599.934,432.83Z" transform="translate(-453.036 -341.948)" fill="#ffc1c8"/>
    <path id="Path_84" data-name="Path 84" d="M571.2,519.41s-11.833,10.251-10.655,10.251S571.2,519.41,571.2,519.41Z" transform="translate(-438.27 -407.476)" opacity="0.1"/>
    <path id="Path_85" data-name="Path 85" d="M623.735,535.6s-3.761.9-3.034,1.451S623.735,535.6,623.735,535.6Z" transform="translate(-483.705 -419.416)" opacity="0.1"/>
    <path id="Path_86" data-name="Path 86" d="M581.29,439.16s4.694.42,3.866,1.889S581.29,439.16,581.29,439.16Z" transform="translate(-453.872 -346.292)" opacity="0.1"/>
    <path id="Path_87" data-name="Path 87" d="M569.125,610.09s-.637,1.846,0,2.835,0,3.351,0,3.351v8.248s-.088,5.988,2.085,8.073Z" transform="translate(-444.367 -476.956)" opacity="0.1"/>
    <path id="Path_88" data-name="Path 88" d="M545.83,709.81a15.493,15.493,0,0,1,1.451,2.539C547.464,713.029,545.83,709.81,545.83,709.81Z" transform="translate(-426.864 -553.652)" opacity="0.1"/>
    <path id="Path_89" data-name="Path 89" d="M547.06,694.441s2.949-.544,3.4-.227S547.06,694.441,547.06,694.441Z" transform="translate(-427.858 -542.002)" opacity="0.1"/>
    <path id="Path_90" data-name="Path 90" d="M543.1,738.49s-.863.09.861,1.031,5.08,2.132,5.124,1.724S543.1,738.49,543.1,738.49Z" transform="translate(-424.769 -574.94)" opacity="0.1"/>
    <path id="Path_91" data-name="Path 91" d="M592.69,703.347c.3,0,4.1-.227,3.882.363S592.69,703.347,592.69,703.347Z" transform="translate(-462.528 -548.823)" opacity="0.1"/>
    <path id="Path_92" data-name="Path 92" d="M612.7,679.95s.861-1.495,1.178-.861S612.7,679.95,612.7,679.95Z" transform="translate(-477.633 -528.103)" opacity="0.1"/>
    <path id="Path_93" data-name="Path 93" d="M533.158,321.569a11.935,11.935,0,0,1-.459,3.292,1.794,1.794,0,0,1-1.98.121,5.332,5.332,0,0,1-1.662-1.8,4.108,4.108,0,0,0-1.771-1.665,3.221,3.221,0,0,0-2.925.608c-.845.608-1.521,1.413-2.32,2.062a3.773,3.773,0,0,1-2.835,1.016,4.868,4.868,0,0,1-1.8-.83,16.2,16.2,0,0,0-2.451-1.572c-.848-.327-1.546.258-2.353.258-.642.232-1.34.76-1.211,1.428a2.214,2.214,0,0,0,.33.691,2.9,2.9,0,0,1-.379,3.194,11.975,11.975,0,1,1,21.824-6.812Z" transform="translate(-399.737 -248.37)" opacity="0.1"/>
    <path id="Path_94" data-name="Path 94" d="M505.832,309.106c-.642.232-1.34.76-1.214,1.431a2.3,2.3,0,0,0,.332.688,2.893,2.893,0,0,1-1.289,3.895,1.142,1.142,0,0,1-.717.113,1.268,1.268,0,0,1-.515-.309,4.771,4.771,0,0,1-1.487-2.565,30.9,30.9,0,0,1-.2-3.183c-.113-1.059-.477-2.1-.6-3.17a2.941,2.941,0,0,1,.162-1.567,3.645,3.645,0,0,1,.65-.892,8.37,8.37,0,0,0,1.843-2.655c.575-1.629.157-3.7,1.415-4.9a7.865,7.865,0,0,1,2.119-1.1,14.923,14.923,0,0,0,1.946-1.235c2.333-1.6,5.168-2.835,7.941-2.268a11.3,11.3,0,0,1,3.147,1.289,35.386,35.386,0,0,1,5.155,3.464,8.022,8.022,0,0,1,1.8,1.853,6.428,6.428,0,0,1,.789,1.972,11.3,11.3,0,0,1,.149,4.64,30.009,30.009,0,0,0-.866,4.511,2.914,2.914,0,0,1-.224,1.516,1.68,1.68,0,0,1-2.2.381,5.251,5.251,0,0,1-1.66-1.8,4.073,4.073,0,0,0-1.771-1.663,3.22,3.22,0,0,0-2.925.606c-.845.606-1.518,1.412-2.32,2.062a3.759,3.759,0,0,1-2.835,1.016,4.862,4.862,0,0,1-1.8-.827,15.907,15.907,0,0,0-2.449-1.572C507.361,308.513,506.636,309.106,505.832,309.106Z" transform="translate(-392.916 -234.568)" fill="#794f6a"/>
    <path id="Path_95" data-name="Path 95" d="M597.441,432.83s-13.333,12.336-10.614,18.5,14.692-4.717,14.692-4.717l4.268-9.877Z" transform="translate(-458.337 -342.099)" fill="#f8bdc5"/>
    <g id="Group_36" data-name="Group 36" transform="translate(107.192 67.21)" opacity="0.1">
      <path id="Path_96" data-name="Path 96" d="M503.679,354.287a1.134,1.134,0,0,1-.714.113,1.232,1.232,0,0,1-.515-.312,4.778,4.778,0,0,1-1.49-2.562,31.918,31.918,0,0,1-.2-3.186c-.113-1.059-.479-2.1-.6-3.17a.68.68,0,0,0-.013-.16,4.082,4.082,0,0,0,.013.887c.124,1.067.49,2.1.6,3.17a31.584,31.584,0,0,0,.2,3.183,4.776,4.776,0,0,0,1.49,2.565,1.252,1.252,0,0,0,.515.309,1.134,1.134,0,0,0,.714-.113,2.912,2.912,0,0,0,1.588-2.974,2.858,2.858,0,0,1-1.588,2.25Z" transform="translate(-500.13 -342.162)"/>
      <path id="Path_97" data-name="Path 97" d="M540.221,335.581a29.669,29.669,0,0,0-.863,4.511,2.89,2.89,0,0,1-.227,1.516,1.676,1.676,0,0,1-2.2.381,5.261,5.261,0,0,1-1.663-1.8,4.058,4.058,0,0,0-1.771-1.663,3.217,3.217,0,0,0-2.923.608c-.845.608-1.521,1.41-2.32,2.062a3.775,3.775,0,0,1-2.835,1.018,4.909,4.909,0,0,1-1.8-.83,16.1,16.1,0,0,0-2.449-1.572c-.845-.327-1.547.258-2.353.258-.642.235-1.34.76-1.217,1.433a1.064,1.064,0,0,0,.07.211,2.005,2.005,0,0,1,1.147-.918c.8,0,1.516-.577,2.353-.258a15.53,15.53,0,0,1,2.449,1.572,4.788,4.788,0,0,0,1.8.827,3.719,3.719,0,0,0,2.835-1.016c.794-.657,1.477-1.469,2.32-2.062a3.252,3.252,0,0,1,2.923-.606,4.09,4.09,0,0,1,1.771,1.662,5.477,5.477,0,0,0,1.663,1.8,1.66,1.66,0,0,0,2.2-.381,3.079,3.079,0,0,0,.227-1.516,28.757,28.757,0,0,1,.863-4.511,11.408,11.408,0,0,0,.165-2.351A11.439,11.439,0,0,1,540.221,335.581Z" transform="translate(-513.085 -333.96)"/>
    </g>
    <path id="Path_98" data-name="Path 98" d="M562.148,174.448s-4.9,8.89,1.8,13.426,7.349,4.083,7.349,4.083a6.518,6.518,0,0,0,0,1.361c.093.273,1.8.9,1.8.9a14.668,14.668,0,0,0,5.078,4.81,7.1,7.1,0,0,1,3.539,4.9,3.091,3.091,0,0,0,1.547,2.268c1.547,1.088,2.737,4.263,2.737,4.263v2.9c0,.454.544,1.8-.634,1.949s-.183,2.858-.183,2.858-1.268,1.547-1,2.268-.544,2.175-.544,2.175-1,1.451-.907,1.724-1.088,1.271-.817,1.9-1.358,1.451-1.088,2.178-1.16,1.088-1.16,1.088l-3.92,9.073s8.248,1.8,10.377,6.348l10.4-19.05s5.8-14.241,5.988-15.148-1.271-4.173-1.271-4.173l-7.075-12.888-10.614-14.968S575.121,160.751,562.148,174.448Z" transform="translate(-439.414 -139.725)" opacity="0.1"/>
    <path id="Path_99" data-name="Path 99" d="M584.758,189.632s-12.743,4.472-6.031,9.008,7.349,4.08,7.349,4.08a6.7,6.7,0,0,0,0,1.361c.09.271,1.8.907,1.8.907a14.688,14.688,0,0,0,5.08,4.81,7.1,7.1,0,0,1,3.539,4.9,3.091,3.091,0,0,0,1.546,2.268c1.547,1.088,2.722,4.263,2.722,4.263v2.9c0,.454.544,1.8-.637,1.951s-.18,2.858-.18,2.858-1.271,1.547-1,2.266-.544,2.178-.544,2.178-1,1.451-.907,1.724-1.09,1.271-.817,1.9-1.361,1.451-1.088,2.178-1.162,1.088-1.162,1.088l-3.918,9.07s6.794.351,8.939,4.9l11.833-17.586s5.807-14.241,5.988-15.148-1.266-4.183-1.266-4.183l-7.075-12.888-16.14-9.31S597.73,175.933,584.758,189.632Z" transform="translate(-451.809 -154.34)" opacity="0.1"/>
    <path id="Path_100" data-name="Path 100" d="M564.968,174.45s-4.9,8.89,1.8,13.426,7.349,4.083,7.349,4.083a6.706,6.706,0,0,0,0,1.361c.09.273,1.8.9,1.8.9a14.688,14.688,0,0,0,5.08,4.81,7.1,7.1,0,0,1,3.539,4.9,3.091,3.091,0,0,0,1.547,2.268c1.547,1.088,2.735,4.263,2.735,4.263v2.9c0,.454.544,1.8-.637,1.949s-.18,2.858-.18,2.858-1.271,1.547-1,2.268-.544,2.175-.544,2.175-1,1.451-.907,1.724-1.09,1.271-.817,1.9-1.361,1.451-1.088,2.178-1.162,1.088-1.162,1.088l-3.918,9.073s8.233,1.8,10.375,6.348l10.4-19.05s5.807-14.241,5.988-15.148-1.271-4.173-1.271-4.173l-7.075-12.888-10.612-14.962S577.938,160.753,564.968,174.45Z" transform="translate(-441.564 -139.728)" fill="#5185eb"/>
    <g id="Group_37" data-name="Group 37" transform="translate(72.392 30.389)" opacity="0.1">
      <path id="Path_101" data-name="Path 101" d="M357.039,187.769a12.933,12.933,0,0,0-.722-3.3,13.989,13.989,0,0,1-1.005-3.142v-.1a4.2,4.2,0,0,0,0,.825,14.116,14.116,0,0,0,1.005,3.142,12.912,12.912,0,0,1,.722,3.3c.036.423.052.851.057,1.289C357.1,189.1,357.1,188.432,357.039,187.769Z" transform="translate(-355.291 -181.23)"/>
      <path id="Path_102" data-name="Path 102" d="M370.995,230.624c-.554,1.217-2.237,1.41-3.526,1.052a7.233,7.233,0,0,1-4.81-4.5,10.645,10.645,0,0,1-.516-3.431,11.8,11.8,0,0,0,.516,4.155,7.235,7.235,0,0,0,4.81,4.5c1.289.356,2.972.165,3.526-1.054a3.932,3.932,0,0,0,.2-1.7A2.656,2.656,0,0,1,370.995,230.624Z" transform="translate(-360.376 -212.79)"/>
      <path id="Path_103" data-name="Path 103" d="M468.737,182.186a2.33,2.33,0,0,1-1.224,2.028,1.928,1.928,0,0,1-1.374-.129c-1.289-.562-2.436-1.918-3.812-1.59-1.124.258-1.662,1.528-1.959,2.647a6.517,6.517,0,0,0-.276,2.183,8.508,8.508,0,0,1,.276-1.459c.3-1.116.835-2.379,1.959-2.647,1.376-.325,2.513,1.031,3.812,1.59a1.918,1.918,0,0,0,1.374.131,2.331,2.331,0,0,0,1.224-2.031,9.367,9.367,0,0,0,.077-1.59C468.8,181.609,468.776,181.9,468.737,182.186Z" transform="translate(-433.075 -181.297)"/>
      <path id="Path_104" data-name="Path 104" d="M421.659,219.245c-.773.559-1.822-.036-2.67-.482a3,3,0,0,0-2.925-.224c-.3.186-.536.454-.825.652a2.967,2.967,0,0,1-1.99.412c-1.642-.168-2.255-1.206-3.505-2.01-.918-.59-2.835-.843-3.382.369a2.2,2.2,0,0,0-.106,1.116,1.45,1.45,0,0,1,.106-.389c.549-1.214,2.464-.961,3.382-.369,1.25.8,1.864,1.843,3.505,2.01a2.983,2.983,0,0,0,1.99-.415c.289-.2.528-.464.825-.65a3.009,3.009,0,0,1,2.925.224c.848.443,1.892,1.031,2.67.479a1.429,1.429,0,0,0,.461-1.472A1.191,1.191,0,0,1,421.659,219.245Z" transform="translate(-393.098 -207.855)"/>
      <path id="Path_105" data-name="Path 105" d="M399.529,229.2c-.353.809-1.438,1.031-1.938,1.76a3.122,3.122,0,0,0-.33,1.894,2.145,2.145,0,0,1,.33-1.168c.5-.729,1.585-.954,1.938-1.763a2.243,2.243,0,0,0,.1-1.1A1.453,1.453,0,0,1,399.529,229.2Z" transform="translate(-386.438 -216.561)"/>
    </g>
  </g>
</svg>
